<svg width="50" height="51" viewBox="0 0 50 51" fill="none" xmlns="http://www.w3.org/2000/svg">
<path d="M0 0.702637H44C47.3137 0.702637 50 3.38893 50 6.70264V44.7026C50 48.0163 47.3137 50.7026 44 50.7026H0V0.702637Z" fill="#88B1B9"/>
<path d="M0 0.702637H44C47.3137 0.702637 50 3.38893 50 6.70264V44.7026C50 48.0163 47.3137 50.7026 44 50.7026H0V0.702637Z" stroke="#2E2E2E"/>
<path fill-rule="evenodd" clip-rule="evenodd" d="M27.2335 32.7026L32.8898 27.1311C33.4106 26.6178 33.4106 25.7859 32.8898 25.2742L27.2335 19.7026L25.3479 21.5607L28.7279 24.8893H18V27.5156H28.7279L25.3479 30.8453L27.2335 32.7026Z" fill="#2E2E2E"/>
</svg>
