<svg width="1084" height="90" viewBox="0 0 1084 90" fill="none" xmlns="http://www.w3.org/2000/svg">
<g filter="url(#filter0_f_47_60)">
<path d="M20.89 39L16.39 18.3H20.11L24.37 39H20.89ZM23.23 39L27.46 18.3H30.76L26.5 39H23.23ZM33.82 39L29.53 18.3H32.92L37.24 39H33.82ZM36.1 39L40.24 18.3H43.87L39.37 39H36.1ZM56.3308 39V29.79C56.3308 28.49 56.0008 27.51 55.3408 26.85C54.7008 26.17 53.9108 25.83 52.9708 25.83C52.0308 25.83 51.2308 26.17 50.5708 26.85C49.9308 27.51 49.6108 28.49 49.6108 29.79H48.7108C48.7108 28.33 48.9508 27.08 49.4308 26.04C49.9108 24.98 50.5808 24.17 51.4408 23.61C52.3008 23.05 53.2708 22.77 54.3508 22.77C55.4308 22.77 56.3808 23.02 57.2008 23.52C58.0208 24.02 58.6608 24.74 59.1208 25.68C59.5808 26.62 59.8108 27.73 59.8108 29.01V39H56.3308ZM46.1308 39V17.55H49.6108V39H46.1308ZM72.9545 39C72.8345 38.48 72.7345 37.95 72.6545 37.41C72.5945 36.87 72.5645 36.34 72.5645 35.82V29.1C72.5645 27.88 72.2545 27.01 71.6345 26.49C71.0345 25.97 70.3145 25.71 69.4745 25.71C68.6945 25.71 68.0245 25.93 67.4645 26.37C66.9245 26.81 66.5345 27.48 66.2945 28.38L62.9945 27.45C63.4145 25.91 64.2145 24.75 65.3945 23.97C66.5945 23.17 68.0245 22.77 69.6845 22.77C71.6845 22.77 73.2445 23.3 74.3645 24.36C75.4845 25.42 76.0445 26.88 76.0445 28.74V35.46C76.0445 36.64 76.1945 37.82 76.4945 39H72.9545ZM67.3445 39.33C65.9045 39.33 64.7645 38.93 63.9245 38.13C63.1045 37.33 62.6945 36.3 62.6945 35.04C62.6945 33.84 63.0945 32.8 63.8945 31.92C64.7145 31.04 65.9645 30.45 67.6445 30.15L73.4045 29.19V31.68L68.8445 32.61C67.8845 32.79 67.2045 33.07 66.8045 33.45C66.4045 33.83 66.2045 34.27 66.2045 34.77C66.2045 35.19 66.3745 35.58 66.7145 35.94C67.0545 36.28 67.5845 36.45 68.3045 36.45C68.9845 36.45 69.6445 36.29 70.2845 35.97C70.9445 35.65 71.4845 35.19 71.9045 34.59C72.3445 33.97 72.5645 33.23 72.5645 32.37H73.5545C73.5545 33.79 73.2745 35.03 72.7145 36.09C72.1545 37.13 71.4045 37.93 70.4645 38.49C69.5245 39.05 68.4845 39.33 67.3445 39.33ZM85.495 39.33C83.875 39.33 82.605 38.89 81.685 38.01C80.765 37.13 80.305 35.81 80.305 34.05V19.8L83.815 19.11V33.51C83.815 34.39 84.025 35.04 84.445 35.46C84.885 35.88 85.515 36.09 86.335 36.09C86.715 36.09 87.075 36.06 87.415 36C87.755 35.94 88.085 35.87 88.405 35.79V39C87.985 39.12 87.545 39.2 87.085 39.24C86.625 39.3 86.095 39.33 85.495 39.33ZM78.145 26.07V23.1H88.255V26.07H78.145ZM107.278 39V29.79C107.278 28.49 106.948 27.51 106.288 26.85C105.648 26.17 104.858 25.83 103.918 25.83C102.978 25.83 102.178 26.17 101.518 26.85C100.878 27.51 100.558 28.49 100.558 29.79H99.658C99.658 28.33 99.898 27.08 100.378 26.04C100.858 24.98 101.528 24.17 102.388 23.61C103.248 23.05 104.218 22.77 105.298 22.77C106.378 22.77 107.328 23.02 108.148 23.52C108.968 24.02 109.608 24.74 110.068 25.68C110.528 26.62 110.758 27.73 110.758 29.01V39H107.278ZM97.078 39V17.55H100.558V39H97.078ZM123.902 39C123.782 38.48 123.682 37.95 123.602 37.41C123.542 36.87 123.512 36.34 123.512 35.82V29.1C123.512 27.88 123.202 27.01 122.582 26.49C121.982 25.97 121.262 25.71 120.422 25.71C119.642 25.71 118.972 25.93 118.412 26.37C117.872 26.81 117.482 27.48 117.242 28.38L113.942 27.45C114.362 25.91 115.162 24.75 116.342 23.97C117.542 23.17 118.972 22.77 120.632 22.77C122.632 22.77 124.192 23.3 125.312 24.36C126.432 25.42 126.992 26.88 126.992 28.74V35.46C126.992 36.64 127.142 37.82 127.442 39H123.902ZM118.292 39.33C116.852 39.33 115.712 38.93 114.872 38.13C114.052 37.33 113.642 36.3 113.642 35.04C113.642 33.84 114.042 32.8 114.842 31.92C115.662 31.04 116.912 30.45 118.592 30.15L124.352 29.19V31.68L119.792 32.61C118.832 32.79 118.152 33.07 117.752 33.45C117.352 33.83 117.152 34.27 117.152 34.77C117.152 35.19 117.322 35.58 117.662 35.94C118.002 36.28 118.532 36.45 119.252 36.45C119.932 36.45 120.592 36.29 121.232 35.97C121.892 35.65 122.432 35.19 122.852 34.59C123.292 33.97 123.512 33.23 123.512 32.37H124.502C124.502 33.79 124.222 35.03 123.662 36.09C123.102 37.13 122.352 37.93 121.412 38.49C120.472 39.05 119.432 39.33 118.292 39.33ZM138.812 39.33C137.172 39.33 135.842 38.72 134.822 37.5C133.822 36.28 133.322 34.55 133.322 32.31V29.79C133.322 27.55 133.822 25.82 134.822 24.6C135.842 23.38 137.172 22.77 138.812 22.77C140.052 22.77 141.142 23.1 142.082 23.76C143.022 24.42 143.752 25.37 144.272 26.61C144.792 27.83 145.052 29.31 145.052 31.05C145.052 32.77 144.792 34.25 144.272 35.49C143.752 36.73 143.022 37.68 142.082 38.34C141.142 39 140.052 39.33 138.812 39.33ZM130.652 44.25V23.1H134.132V26.94L133.652 31.05L134.132 35.1V44.25H130.652ZM137.702 36.24C138.822 36.24 139.722 35.82 140.402 34.98C141.102 34.14 141.452 32.83 141.452 31.05C141.452 29.27 141.102 27.96 140.402 27.12C139.722 26.28 138.822 25.86 137.702 25.86C136.582 25.86 135.672 26.28 134.972 27.12C134.292 27.96 133.952 29.27 133.952 31.05C133.952 32.83 134.292 34.14 134.972 34.98C135.672 35.82 136.582 36.24 137.702 36.24ZM156.127 39.33C154.487 39.33 153.157 38.72 152.137 37.5C151.137 36.28 150.637 34.55 150.637 32.31V29.79C150.637 27.55 151.137 25.82 152.137 24.6C153.157 23.38 154.487 22.77 156.127 22.77C157.367 22.77 158.457 23.1 159.397 23.76C160.337 24.42 161.067 25.37 161.587 26.61C162.107 27.83 162.367 29.31 162.367 31.05C162.367 32.77 162.107 34.25 161.587 35.49C161.067 36.73 160.337 37.68 159.397 38.34C158.457 39 157.367 39.33 156.127 39.33ZM147.967 44.25V23.1H151.447V26.94L150.967 31.05L151.447 35.1V44.25H147.967ZM155.017 36.24C156.137 36.24 157.037 35.82 157.717 34.98C158.417 34.14 158.767 32.83 158.767 31.05C158.767 29.27 158.417 27.96 157.717 27.12C157.037 26.28 156.137 25.86 155.017 25.86C153.897 25.86 152.987 26.28 152.287 27.12C151.607 27.96 151.267 29.27 151.267 31.05C151.267 32.83 151.607 34.14 152.287 34.98C152.987 35.82 153.897 36.24 155.017 36.24ZM171.911 39.33C170.431 39.33 169.131 38.99 168.011 38.31C166.911 37.63 166.051 36.67 165.431 35.43C164.811 34.17 164.501 32.71 164.501 31.05C164.501 29.33 164.811 27.85 165.431 26.61C166.071 25.37 166.941 24.42 168.041 23.76C169.161 23.1 170.441 22.77 171.881 22.77C173.301 22.77 174.551 23.1 175.631 23.76C176.711 24.42 177.551 25.37 178.151 26.61C178.771 27.85 179.081 29.33 179.081 31.05C179.081 31.23 179.081 31.4 179.081 31.56C179.081 31.72 179.071 31.92 179.051 32.16H166.961V29.58H176.471L175.481 31.05C175.481 29.15 175.161 27.79 174.521 26.97C173.881 26.15 173.001 25.74 171.881 25.74C170.741 25.74 169.821 26.16 169.121 27C168.441 27.82 168.101 29.17 168.101 31.05C168.101 32.81 168.441 34.11 169.121 34.95C169.821 35.77 170.781 36.18 172.001 36.18C172.801 36.18 173.491 36 174.071 35.64C174.651 35.28 175.101 34.69 175.421 33.87L178.721 34.98C178.241 36.34 177.401 37.41 176.201 38.19C175.021 38.95 173.591 39.33 171.911 39.33ZM192.151 39V29.79C192.151 28.49 191.821 27.51 191.161 26.85C190.521 26.17 189.731 25.83 188.791 25.83C187.851 25.83 187.051 26.17 186.391 26.85C185.751 27.51 185.431 28.49 185.431 29.79H184.531C184.531 28.33 184.771 27.08 185.251 26.04C185.731 24.98 186.401 24.17 187.261 23.61C188.121 23.05 189.091 22.77 190.171 22.77C191.251 22.77 192.201 23.02 193.021 23.52C193.841 24.02 194.481 24.74 194.941 25.68C195.401 26.62 195.631 27.73 195.631 29.01V39H192.151ZM181.951 39V23.1H185.431V39H181.951ZM204.965 39.33C203.105 39.33 201.615 38.96 200.495 38.22C199.375 37.48 198.615 36.38 198.215 34.92L201.485 33.9C201.785 34.84 202.235 35.52 202.835 35.94C203.455 36.36 204.245 36.57 205.205 36.57C206.065 36.57 206.725 36.42 207.185 36.12C207.665 35.8 207.905 35.37 207.905 34.83C207.905 34.25 207.685 33.81 207.245 33.51C206.805 33.19 206.235 32.93 205.535 32.73C204.855 32.51 204.125 32.29 203.345 32.07C202.565 31.85 201.825 31.57 201.125 31.23C200.445 30.87 199.885 30.39 199.445 29.79C199.025 29.19 198.815 28.4 198.815 27.42C198.815 26.1 199.335 25 200.375 24.12C201.435 23.22 202.945 22.77 204.905 22.77C206.585 22.77 207.945 23.13 208.985 23.85C210.025 24.57 210.765 25.61 211.205 26.97L208.025 28.02C207.725 27.14 207.305 26.51 206.765 26.13C206.225 25.73 205.525 25.53 204.665 25.53C203.845 25.53 203.225 25.68 202.805 25.98C202.405 26.26 202.205 26.62 202.205 27.06C202.205 27.56 202.425 27.95 202.865 28.23C203.305 28.49 203.875 28.72 204.575 28.92C205.275 29.1 206.015 29.31 206.795 29.55C207.575 29.77 208.315 30.07 209.015 30.45C209.715 30.83 210.285 31.35 210.725 32.01C211.165 32.65 211.385 33.49 211.385 34.53C211.385 35.91 210.825 37.06 209.705 37.98C208.585 38.88 207.005 39.33 204.965 39.33ZM220.447 39V23.1H223.927V39H220.447ZM222.187 21.09C221.627 21.09 221.147 20.91 220.747 20.55C220.367 20.17 220.177 19.69 220.177 19.11C220.177 18.49 220.367 18.01 220.747 17.67C221.147 17.31 221.627 17.13 222.187 17.13C222.747 17.13 223.217 17.31 223.597 17.67C223.997 18.01 224.197 18.49 224.197 19.11C224.197 19.69 223.997 20.17 223.597 20.55C223.217 20.91 222.747 21.09 222.187 21.09ZM228.196 39V22.65C228.196 20.83 228.666 19.47 229.606 18.57C230.546 17.65 231.846 17.19 233.506 17.19C233.986 17.19 234.416 17.22 234.796 17.28C235.176 17.34 235.576 17.43 235.996 17.55V20.58C235.676 20.48 235.356 20.4 235.036 20.34C234.716 20.28 234.376 20.25 234.016 20.25C233.256 20.25 232.676 20.44 232.276 20.82C231.896 21.2 231.706 21.74 231.706 22.44V39H228.196ZM226.036 26.07V23.1H235.846V26.07H226.036ZM244.536 39V18.3H248.166V39H244.536ZM277.078 39V29.37C277.078 28.19 276.788 27.31 276.208 26.73C275.648 26.13 274.958 25.83 274.138 25.83C273.318 25.83 272.618 26.13 272.038 26.73C271.478 27.31 271.198 28.19 271.198 29.37H270.088C270.088 27.99 270.318 26.81 270.778 25.83C271.258 24.83 271.898 24.07 272.698 23.55C273.518 23.03 274.448 22.77 275.488 22.77C276.968 22.77 278.178 23.29 279.118 24.33C280.078 25.37 280.558 26.79 280.558 28.59V39H277.078ZM258.328 39V23.1H261.808V39H258.328ZM267.688 39V29.37C267.688 28.19 267.408 27.31 266.848 26.73C266.288 26.13 265.588 25.83 264.748 25.83C263.928 25.83 263.228 26.13 262.648 26.73C262.088 27.31 261.808 28.19 261.808 29.37H260.908C260.908 27.99 261.128 26.81 261.568 25.83C262.028 24.83 262.648 24.07 263.428 23.55C264.228 23.03 265.138 22.77 266.158 22.77C267.638 22.77 268.848 23.29 269.788 24.33C270.728 25.37 271.198 26.79 271.198 28.59V39H267.688ZM290.886 39.33C289.426 39.33 288.136 38.99 287.016 38.31C285.896 37.63 285.016 36.67 284.376 35.43C283.756 34.17 283.446 32.71 283.446 31.05C283.446 29.37 283.756 27.91 284.376 26.67C285.016 25.43 285.896 24.47 287.016 23.79C288.136 23.11 289.426 22.77 290.886 22.77C292.346 22.77 293.636 23.11 294.756 23.79C295.876 24.47 296.746 25.43 297.366 26.67C298.006 27.91 298.326 29.37 298.326 31.05C298.326 32.71 298.006 34.17 297.366 35.43C296.746 36.67 295.876 37.63 294.756 38.31C293.636 38.99 292.346 39.33 290.886 39.33ZM290.886 36.21C292.046 36.21 292.976 35.79 293.676 34.95C294.376 34.11 294.726 32.81 294.726 31.05C294.726 29.29 294.376 27.99 293.676 27.15C292.976 26.31 292.046 25.89 290.886 25.89C289.726 25.89 288.796 26.31 288.096 27.15C287.396 27.99 287.046 29.29 287.046 31.05C287.046 32.81 287.396 34.11 288.096 34.95C288.796 35.79 289.726 36.21 290.886 36.21ZM304.459 39L299.599 23.1H303.319L307.939 39H304.459ZM306.649 39L311.179 23.1H314.749L309.889 39H306.649ZM323.405 39.33C321.925 39.33 320.625 38.99 319.505 38.31C318.405 37.63 317.545 36.67 316.925 35.43C316.305 34.17 315.995 32.71 315.995 31.05C315.995 29.33 316.305 27.85 316.925 26.61C317.565 25.37 318.435 24.42 319.535 23.76C320.655 23.1 321.935 22.77 323.375 22.77C324.795 22.77 326.045 23.1 327.125 23.76C328.205 24.42 329.045 25.37 329.645 26.61C330.265 27.85 330.575 29.33 330.575 31.05C330.575 31.23 330.575 31.4 330.575 31.56C330.575 31.72 330.565 31.92 330.545 32.16H318.455V29.58H327.965L326.975 31.05C326.975 29.15 326.655 27.79 326.015 26.97C325.375 26.15 324.495 25.74 323.375 25.74C322.235 25.74 321.315 26.16 320.615 27C319.935 27.82 319.595 29.17 319.595 31.05C319.595 32.81 319.935 34.11 320.615 34.95C321.315 35.77 322.275 36.18 323.495 36.18C324.295 36.18 324.985 36 325.565 35.64C326.145 35.28 326.595 34.69 326.915 33.87L330.215 34.98C329.735 36.34 328.895 37.41 327.695 38.19C326.515 38.95 325.085 39.33 323.405 39.33ZM337.945 32.19V31.17C337.945 30.35 338.065 29.66 338.305 29.1C338.565 28.54 338.905 28.08 339.325 27.72C339.745 27.34 340.185 27.02 340.645 26.76C341.105 26.48 341.545 26.2 341.965 25.92C342.385 25.64 342.725 25.33 342.985 24.99C343.265 24.63 343.405 24.19 343.405 23.67C343.405 22.95 343.115 22.37 342.535 21.93C341.975 21.47 341.185 21.24 340.165 21.24C339.145 21.24 338.305 21.51 337.645 22.05C336.985 22.59 336.545 23.45 336.325 24.63L332.815 23.94C333.035 22.62 333.475 21.52 334.135 20.64C334.815 19.76 335.685 19.1 336.745 18.66C337.805 18.2 338.995 17.97 340.315 17.97C341.715 17.97 342.925 18.2 343.945 18.66C344.965 19.12 345.745 19.76 346.285 20.58C346.845 21.38 347.125 22.31 347.125 23.37C347.125 24.27 346.975 25.03 346.675 25.65C346.395 26.25 346.015 26.75 345.535 27.15C345.075 27.55 344.595 27.9 344.095 28.2C343.595 28.5 343.105 28.79 342.625 29.07C342.165 29.35 341.785 29.68 341.485 30.06C341.205 30.42 341.065 30.89 341.065 31.47V32.19H337.945ZM339.565 39.33C338.945 39.33 338.425 39.13 338.005 38.73C337.585 38.31 337.375 37.78 337.375 37.14C337.375 36.5 337.585 35.97 338.005 35.55C338.425 35.13 338.945 34.92 339.565 34.92C340.205 34.92 340.725 35.13 341.125 35.55C341.545 35.97 341.755 36.5 341.755 37.14C341.755 37.78 341.545 38.31 341.125 38.73C340.725 39.13 340.205 39.33 339.565 39.33ZM18.5 69V67.14H22.72C23.7467 67.14 24.4867 66.9467 24.94 66.56C25.3933 66.16 25.62 65.6267 25.62 64.96C25.62 64.2533 25.3933 63.7067 24.94 63.32C24.4867 62.9333 23.7467 62.74 22.72 62.74H18.5V61.38H22.92C24.4667 61.38 25.66 61.7267 26.5 62.42C27.3533 63.1133 27.78 64.02 27.78 65.14C27.78 66.2867 27.36 67.22 26.52 67.94C25.68 68.6467 24.52 69 23.04 69H18.5ZM17.5 69V55.2H19.6V69H17.5ZM18.5 62.12V61.02H22.62C23.4867 61.02 24.1267 60.8267 24.54 60.44C24.9667 60.0533 25.18 59.5667 25.18 58.98C25.18 58.3933 24.9667 57.9267 24.54 57.58C24.1267 57.2333 23.4867 57.06 22.62 57.06H18.5V55.2H22.92C23.8 55.2 24.5667 55.3533 25.22 55.66C25.8733 55.9667 26.38 56.3933 26.74 56.94C27.1 57.4733 27.28 58.0933 27.28 58.8C27.28 59.76 26.9 60.5533 26.14 61.18C25.3933 61.8067 24.2867 62.12 22.82 62.12H18.5ZM29.7609 69V54.7H31.7609V69H29.7609ZM34.3703 69V58.4H36.3703V69H34.3703ZM35.3703 56.96C35.0236 56.96 34.7303 56.8467 34.4903 56.62C34.2503 56.3933 34.1303 56.1 34.1303 55.74C34.1303 55.3667 34.2503 55.0667 34.4903 54.84C34.7303 54.6133 35.0236 54.5 35.3703 54.5C35.717 54.5 36.0103 54.6133 36.2503 54.84C36.4903 55.0667 36.6103 55.3667 36.6103 55.74C36.6103 56.1 36.4903 56.3933 36.2503 56.62C36.0103 56.8467 35.717 56.96 35.3703 56.96ZM42.6797 69.2C41.6397 69.2 40.8264 68.9267 40.2397 68.38C39.6664 67.82 39.3797 66.9933 39.3797 65.9V56.2L41.3797 55.8V65.54C41.3797 66.1533 41.5264 66.6067 41.8197 66.9C42.113 67.18 42.5397 67.32 43.0997 67.32C43.3664 67.32 43.613 67.3 43.8397 67.26C44.0797 67.22 44.313 67.1733 44.5397 67.12V69C44.2597 69.0667 43.973 69.1133 43.6797 69.14C43.3997 69.18 43.0664 69.2 42.6797 69.2ZM37.8797 60.14V58.4H44.4397V60.14H37.8797ZM45.7634 69V67.96L51.0234 60.14H45.9634V58.4H53.8234V59.44L48.5634 67.26H54.0234V69H45.7634ZM64.5295 69L56.8895 55.2H59.1095L66.7495 69H64.5295ZM56.2695 69V55.2H58.2695V69H56.2695ZM65.3695 69V55.2H67.3695V69H65.3695ZM74.5111 69.2C73.5378 69.2 72.6844 68.9733 71.9511 68.52C71.2178 68.0667 70.6444 67.4267 70.2311 66.6C69.8311 65.7733 69.6311 64.8067 69.6311 63.7C69.6311 62.54 69.8378 61.5533 70.2511 60.74C70.6644 59.9133 71.2311 59.2867 71.9511 58.86C72.6844 58.42 73.5244 58.2 74.4711 58.2C75.3911 58.2 76.1978 58.42 76.8911 58.86C77.5978 59.2867 78.1444 59.9133 78.5311 60.74C78.9311 61.5533 79.1311 62.54 79.1311 63.7C79.1311 63.8067 79.1311 63.9067 79.1311 64C79.1311 64.0933 79.1244 64.22 79.1111 64.38H71.2711V62.8H77.6311L77.0511 63.7C77.0511 62.3667 76.8178 61.4067 76.3511 60.82C75.8844 60.22 75.2578 59.92 74.4711 59.92C73.6444 59.92 72.9778 60.22 72.4711 60.82C71.9644 61.4067 71.7111 62.3667 71.7111 63.7C71.7111 64.94 71.9578 65.8533 72.4511 66.44C72.9578 67.0267 73.6444 67.32 74.5111 67.32C75.0978 67.32 75.5978 67.1933 76.0111 66.94C76.4378 66.6733 76.7778 66.24 77.0311 65.64L78.8911 66.38C78.5444 67.2733 77.9844 67.9667 77.2111 68.46C76.4378 68.9533 75.5378 69.2 74.5111 69.2ZM84.8867 69.2C83.8467 69.2 83.0334 68.9267 82.4467 68.38C81.8734 67.82 81.5867 66.9933 81.5867 65.9V56.2L83.5867 55.8V65.54C83.5867 66.1533 83.7334 66.6067 84.0267 66.9C84.3201 67.18 84.7467 67.32 85.3067 67.32C85.5734 67.32 85.8201 67.3 86.0467 67.26C86.2867 67.22 86.5201 67.1733 86.7467 67.12V69C86.4667 69.0667 86.1801 69.1133 85.8867 69.14C85.6067 69.18 85.2734 69.2 84.8867 69.2ZM80.0867 60.14V58.4H86.6467V60.14H80.0867ZM96.585 69.2C95.385 69.2 94.425 68.96 93.705 68.48C92.985 67.9867 92.4783 67.2667 92.185 66.32L94.065 65.72C94.2917 66.3867 94.625 66.8667 95.065 67.16C95.505 67.44 96.0583 67.58 96.725 67.58C97.325 67.58 97.805 67.4667 98.165 67.24C98.5383 67 98.725 66.6667 98.725 66.24C98.725 65.8267 98.5783 65.5067 98.285 65.28C97.9917 65.04 97.6117 64.8467 97.145 64.7C96.6783 64.54 96.1783 64.3867 95.645 64.24C95.125 64.08 94.6317 63.8867 94.165 63.66C93.6983 63.4333 93.3183 63.1267 93.025 62.74C92.7317 62.34 92.585 61.82 92.585 61.18C92.585 60.3533 92.925 59.6533 93.605 59.08C94.285 58.4933 95.2583 58.2 96.525 58.2C97.6183 58.2 98.4983 58.44 99.165 58.92C99.8317 59.4 100.312 60.1 100.605 61.02L98.785 61.64C98.545 60.9867 98.225 60.52 97.825 60.24C97.4383 59.96 96.9517 59.82 96.365 59.82C95.7917 59.82 95.345 59.9333 95.025 60.16C94.7183 60.3733 94.565 60.6533 94.565 61C94.565 61.36 94.7117 61.6467 95.005 61.86C95.2983 62.06 95.6783 62.2333 96.145 62.38C96.6117 62.5133 97.105 62.66 97.625 62.82C98.1583 62.98 98.6583 63.1867 99.125 63.44C99.5917 63.68 99.9717 64.0133 100.265 64.44C100.558 64.8667 100.705 65.42 100.705 66.1C100.705 66.9667 100.345 67.7 99.625 68.3C98.9183 68.9 97.905 69.2 96.585 69.2ZM107.109 69.2C106.135 69.2 105.282 68.9733 104.549 68.52C103.815 68.0667 103.242 67.4267 102.829 66.6C102.429 65.7733 102.229 64.8067 102.229 63.7C102.229 62.54 102.435 61.5533 102.849 60.74C103.262 59.9133 103.829 59.2867 104.549 58.86C105.282 58.42 106.122 58.2 107.069 58.2C107.989 58.2 108.795 58.42 109.489 58.86C110.195 59.2867 110.742 59.9133 111.129 60.74C111.529 61.5533 111.729 62.54 111.729 63.7C111.729 63.8067 111.729 63.9067 111.729 64C111.729 64.0933 111.722 64.22 111.709 64.38H103.869V62.8H110.229L109.649 63.7C109.649 62.3667 109.415 61.4067 108.949 60.82C108.482 60.22 107.855 59.92 107.069 59.92C106.242 59.92 105.575 60.22 105.069 60.82C104.562 61.4067 104.309 62.3667 104.309 63.7C104.309 64.94 104.555 65.8533 105.049 66.44C105.555 67.0267 106.242 67.32 107.109 67.32C107.695 67.32 108.195 67.1933 108.609 66.94C109.035 66.6733 109.375 66.24 109.629 65.64L111.489 66.38C111.142 67.2733 110.582 67.9667 109.809 68.46C109.035 68.9533 108.135 69.2 107.109 69.2ZM113.784 69V58.4H115.784V69H113.784ZM115.164 63.42C115.164 62.3533 115.324 61.4333 115.644 60.66C115.978 59.8733 116.431 59.2667 117.004 58.84C117.591 58.4133 118.271 58.2 119.044 58.2V60.42H118.404C117.618 60.42 116.984 60.6333 116.504 61.06C116.024 61.4867 115.784 62.1867 115.784 63.16L115.164 63.42ZM122.978 69L119.598 58.4H121.698L124.998 69H122.978ZM124.198 69L127.418 58.4H129.438L126.058 69H124.198ZM135.234 69.2C134.26 69.2 133.407 68.9733 132.674 68.52C131.94 68.0667 131.367 67.4267 130.954 66.6C130.554 65.7733 130.354 64.8067 130.354 63.7C130.354 62.54 130.56 61.5533 130.974 60.74C131.387 59.9133 131.954 59.2867 132.674 58.86C133.407 58.42 134.247 58.2 135.194 58.2C136.114 58.2 136.92 58.42 137.614 58.86C138.32 59.2867 138.867 59.9133 139.254 60.74C139.654 61.5533 139.854 62.54 139.854 63.7C139.854 63.8067 139.854 63.9067 139.854 64C139.854 64.0933 139.847 64.22 139.834 64.38H131.994V62.8H138.354L137.774 63.7C137.774 62.3667 137.54 61.4067 137.074 60.82C136.607 60.22 135.98 59.92 135.194 59.92C134.367 59.92 133.7 60.22 133.194 60.82C132.687 61.4067 132.434 62.3667 132.434 63.7C132.434 64.94 132.68 65.8533 133.174 66.44C133.68 67.0267 134.367 67.32 135.234 67.32C135.82 67.32 136.32 67.1933 136.734 66.94C137.16 66.6733 137.5 66.24 137.754 65.64L139.614 66.38C139.267 67.2733 138.707 67.9667 137.934 68.46C137.16 68.9533 136.26 69.2 135.234 69.2ZM145.569 69.2C144.369 69.2 143.409 68.96 142.689 68.48C141.969 67.9867 141.463 67.2667 141.169 66.32L143.049 65.72C143.276 66.3867 143.609 66.8667 144.049 67.16C144.489 67.44 145.043 67.58 145.709 67.58C146.309 67.58 146.789 67.4667 147.149 67.24C147.523 67 147.709 66.6667 147.709 66.24C147.709 65.8267 147.563 65.5067 147.269 65.28C146.976 65.04 146.596 64.8467 146.129 64.7C145.663 64.54 145.163 64.3867 144.629 64.24C144.109 64.08 143.616 63.8867 143.149 63.66C142.683 63.4333 142.303 63.1267 142.009 62.74C141.716 62.34 141.569 61.82 141.569 61.18C141.569 60.3533 141.909 59.6533 142.589 59.08C143.269 58.4933 144.243 58.2 145.509 58.2C146.603 58.2 147.483 58.44 148.149 58.92C148.816 59.4 149.296 60.1 149.589 61.02L147.769 61.64C147.529 60.9867 147.209 60.52 146.809 60.24C146.423 59.96 145.936 59.82 145.349 59.82C144.776 59.82 144.329 59.9333 144.009 60.16C143.703 60.3733 143.549 60.6533 143.549 61C143.549 61.36 143.696 61.6467 143.989 61.86C144.283 62.06 144.663 62.2333 145.129 62.38C145.596 62.5133 146.089 62.66 146.609 62.82C147.143 62.98 147.643 63.1867 148.109 63.44C148.576 63.68 148.956 64.0133 149.249 64.44C149.543 64.8667 149.689 65.42 149.689 66.1C149.689 66.9667 149.329 67.7 148.609 68.3C147.903 68.9 146.889 69.2 145.569 69.2ZM159.848 69.2C158.808 69.2 157.994 68.9267 157.408 68.38C156.834 67.82 156.548 66.9933 156.548 65.9V56.2L158.548 55.8V65.54C158.548 66.1533 158.694 66.6067 158.988 66.9C159.281 67.18 159.708 67.32 160.268 67.32C160.534 67.32 160.781 67.3 161.008 67.26C161.248 67.22 161.481 67.1733 161.708 67.12V69C161.428 69.0667 161.141 69.1133 160.848 69.14C160.568 69.18 160.234 69.2 159.848 69.2ZM155.048 60.14V58.4H161.608V60.14H155.048ZM170.371 69V62.82C170.371 61.8733 170.131 61.16 169.651 60.68C169.171 60.2 168.598 59.96 167.931 59.96C167.265 59.96 166.691 60.2 166.211 60.68C165.731 61.16 165.491 61.8733 165.491 62.82H164.831C164.831 61.8733 164.998 61.0533 165.331 60.36C165.678 59.6667 166.145 59.1333 166.731 58.76C167.318 58.3867 167.971 58.2 168.691 58.2C169.411 58.2 170.045 58.3733 170.591 58.72C171.151 59.0533 171.585 59.5333 171.891 60.16C172.211 60.7733 172.371 61.5067 172.371 62.36V69H170.371ZM163.491 69V54.7H165.491V69H163.491ZM179.316 69.2C178.342 69.2 177.489 68.9733 176.756 68.52C176.022 68.0667 175.449 67.4267 175.036 66.6C174.636 65.7733 174.436 64.8067 174.436 63.7C174.436 62.54 174.642 61.5533 175.056 60.74C175.469 59.9133 176.036 59.2867 176.756 58.86C177.489 58.42 178.329 58.2 179.276 58.2C180.196 58.2 181.002 58.42 181.696 58.86C182.402 59.2867 182.949 59.9133 183.336 60.74C183.736 61.5533 183.936 62.54 183.936 63.7C183.936 63.8067 183.936 63.9067 183.936 64C183.936 64.0933 183.929 64.22 183.916 64.38H176.076V62.8H182.436L181.856 63.7C181.856 62.3667 181.622 61.4067 181.156 60.82C180.689 60.22 180.062 59.92 179.276 59.92C178.449 59.92 177.782 60.22 177.276 60.82C176.769 61.4067 176.516 62.3667 176.516 63.7C176.516 64.94 176.762 65.8533 177.256 66.44C177.762 67.0267 178.449 67.32 179.316 67.32C179.902 67.32 180.402 67.1933 180.816 66.94C181.242 66.6733 181.582 66.24 181.836 65.64L183.696 66.38C183.349 67.2733 182.789 67.9667 182.016 68.46C181.242 68.9533 180.342 69.2 179.316 69.2ZM191.906 69L189.286 58.4H191.306L193.786 69H191.906ZM193.026 69L195.526 58.4H197.226L194.746 69H193.026ZM198.786 69L196.306 58.4H198.106L200.666 69H198.786ZM199.906 69L202.306 58.4H204.246L201.626 69H199.906ZM212.618 69V62.82C212.618 61.8733 212.378 61.16 211.898 60.68C211.418 60.2 210.844 59.96 210.178 59.96C209.511 59.96 208.938 60.2 208.458 60.68C207.978 61.16 207.738 61.8733 207.738 62.82H207.077C207.077 61.8733 207.244 61.0533 207.578 60.36C207.924 59.6667 208.391 59.1333 208.978 58.76C209.564 58.3867 210.218 58.2 210.938 58.2C211.658 58.2 212.291 58.3733 212.838 58.72C213.398 59.0533 213.831 59.5333 214.138 60.16C214.458 60.7733 214.618 61.5067 214.618 62.36V69H212.618ZM205.738 69V54.7H207.738V69H205.738ZM221.522 69.2C220.575 69.2 219.735 68.9733 219.002 68.52C218.282 68.0667 217.715 67.4267 217.302 66.6C216.889 65.7733 216.682 64.8067 216.682 63.7C216.682 62.58 216.889 61.6133 217.302 60.8C217.715 59.9733 218.282 59.3333 219.002 58.88C219.735 58.4267 220.575 58.2 221.522 58.2C222.482 58.2 223.322 58.4267 224.042 58.88C224.775 59.3333 225.349 59.9733 225.762 60.8C226.175 61.6133 226.382 62.58 226.382 63.7C226.382 64.8067 226.175 65.7733 225.762 66.6C225.349 67.4267 224.775 68.0667 224.042 68.52C223.322 68.9733 222.482 69.2 221.522 69.2ZM221.522 67.4C222.362 67.4 223.035 67.1067 223.542 66.52C224.049 65.92 224.302 64.98 224.302 63.7C224.302 62.42 224.049 61.4867 223.542 60.9C223.035 60.3 222.362 60 221.522 60C220.695 60 220.029 60.3 219.522 60.9C219.015 61.4867 218.762 62.42 218.762 63.7C218.762 64.98 219.015 65.92 219.522 66.52C220.029 67.1067 220.695 67.4 221.522 67.4ZM228.433 69V54.7H230.433V69H228.433ZM237.382 69.2C236.409 69.2 235.556 68.9733 234.822 68.52C234.089 68.0667 233.516 67.4267 233.102 66.6C232.702 65.7733 232.502 64.8067 232.502 63.7C232.502 62.54 232.709 61.5533 233.122 60.74C233.536 59.9133 234.102 59.2867 234.822 58.86C235.556 58.42 236.396 58.2 237.342 58.2C238.262 58.2 239.069 58.42 239.762 58.86C240.469 59.2867 241.016 59.9133 241.402 60.74C241.802 61.5533 242.002 62.54 242.002 63.7C242.002 63.8067 242.002 63.9067 242.002 64C242.002 64.0933 241.996 64.22 241.982 64.38H234.142V62.8H240.502L239.922 63.7C239.922 62.3667 239.689 61.4067 239.222 60.82C238.756 60.22 238.129 59.92 237.342 59.92C236.516 59.92 235.849 60.22 235.342 60.82C234.836 61.4067 234.582 62.3667 234.582 63.7C234.582 64.94 234.829 65.8533 235.322 66.44C235.829 67.0267 236.516 67.32 237.382 67.32C237.969 67.32 238.469 67.1933 238.882 66.94C239.309 66.6733 239.649 66.24 239.902 65.64L241.762 66.38C241.416 67.2733 240.856 67.9667 240.082 68.46C239.309 68.9533 238.409 69.2 237.382 69.2ZM249.972 69L247.352 58.4H249.372L251.852 69H249.972ZM251.092 69L253.592 58.4H255.292L252.812 69H251.092ZM256.852 69L254.372 58.4H256.172L258.732 69H256.852ZM257.972 69L260.372 58.4H262.312L259.692 69H257.972ZM268.104 69.2C267.157 69.2 266.317 68.9733 265.584 68.52C264.864 68.0667 264.297 67.4267 263.884 66.6C263.471 65.7733 263.264 64.8067 263.264 63.7C263.264 62.58 263.471 61.6133 263.884 60.8C264.297 59.9733 264.864 59.3333 265.584 58.88C266.317 58.4267 267.157 58.2 268.104 58.2C269.064 58.2 269.904 58.4267 270.624 58.88C271.357 59.3333 271.931 59.9733 272.344 60.8C272.757 61.6133 272.964 62.58 272.964 63.7C272.964 64.8067 272.757 65.7733 272.344 66.6C271.931 67.4267 271.357 68.0667 270.624 68.52C269.904 68.9733 269.064 69.2 268.104 69.2ZM268.104 67.4C268.944 67.4 269.617 67.1067 270.124 66.52C270.631 65.92 270.884 64.98 270.884 63.7C270.884 62.42 270.631 61.4867 270.124 60.9C269.617 60.3 268.944 60 268.104 60C267.277 60 266.611 60.3 266.104 60.9C265.597 61.4867 265.344 62.42 265.344 63.7C265.344 64.98 265.597 65.92 266.104 66.52C266.611 67.1067 267.277 67.4 268.104 67.4ZM275.015 69V58.4H277.015V69H275.015ZM276.395 63.42C276.395 62.3533 276.555 61.4333 276.875 60.66C277.208 59.8733 277.662 59.2667 278.235 58.84C278.822 58.4133 279.502 58.2 280.275 58.2V60.42H279.635C278.848 60.42 278.215 60.6333 277.735 61.06C277.255 61.4867 277.015 62.1867 277.015 63.16L276.395 63.42ZM281.968 69V54.7H283.968V69H281.968ZM290.257 69.2C289.444 69.2 288.717 68.98 288.077 68.54C287.437 68.1 286.937 67.4733 286.577 66.66C286.217 65.8333 286.037 64.8467 286.037 63.7C286.037 62.5533 286.217 61.5733 286.577 60.76C286.937 59.9333 287.437 59.3 288.077 58.86C288.717 58.42 289.444 58.2 290.257 58.2C291.377 58.2 292.277 58.6067 292.957 59.42C293.637 60.22 293.977 61.3533 293.977 62.82V64.58C293.977 66.0467 293.637 67.1867 292.957 68C292.277 68.8 291.377 69.2 290.257 69.2ZM290.817 67.44C291.617 67.44 292.264 67.1467 292.757 66.56C293.264 65.96 293.517 65.0067 293.517 63.7C293.517 62.3933 293.264 61.4467 292.757 60.86C292.264 60.26 291.617 59.96 290.817 59.96C290.017 59.96 289.364 60.26 288.857 60.86C288.364 61.4467 288.117 62.3933 288.117 63.7C288.117 65.0067 288.364 65.96 288.857 66.56C289.364 67.1467 290.017 67.44 290.817 67.44ZM293.417 69V66.54L293.717 63.7L293.417 60.84V54.7H295.417V69H293.417ZM298.923 69.2C298.549 69.2 298.236 69.0733 297.983 68.82C297.743 68.5667 297.623 68.2533 297.623 67.88C297.623 67.4933 297.743 67.1733 297.983 66.92C298.236 66.6667 298.549 66.54 298.923 66.54C299.309 66.54 299.623 66.6667 299.863 66.92C300.103 67.1733 300.223 67.4933 300.223 67.88C300.223 68.2533 300.103 68.5667 299.863 68.82C299.623 69.0733 299.309 69.2 298.923 69.2ZM307.012 69V55.2H309.112V69H307.012ZM308.012 69V67.08H316.812V69H308.012ZM308.012 62.88V60.96H315.512V62.88H308.012ZM308.012 57.12V55.2H316.712V57.12H308.012ZM321.083 69L317.703 58.4H319.803L323.103 69H321.083ZM322.303 69L325.523 58.4H327.543L324.163 69H322.303ZM333.339 69.2C332.366 69.2 331.513 68.9733 330.779 68.52C330.046 68.0667 329.473 67.4267 329.059 66.6C328.659 65.7733 328.459 64.8067 328.459 63.7C328.459 62.54 328.666 61.5533 329.079 60.74C329.493 59.9133 330.059 59.2867 330.779 58.86C331.513 58.42 332.353 58.2 333.299 58.2C334.219 58.2 335.026 58.42 335.719 58.86C336.426 59.2867 336.973 59.9133 337.359 60.74C337.759 61.5533 337.959 62.54 337.959 63.7C337.959 63.8067 337.959 63.9067 337.959 64C337.959 64.0933 337.953 64.22 337.939 64.38H330.099V62.8H336.459L335.879 63.7C335.879 62.3667 335.646 61.4067 335.179 60.82C334.713 60.22 334.086 59.92 333.299 59.92C332.473 59.92 331.806 60.22 331.299 60.82C330.793 61.4067 330.539 62.3667 330.539 63.7C330.539 64.94 330.786 65.8533 331.279 66.44C331.786 67.0267 332.473 67.32 333.339 67.32C333.926 67.32 334.426 67.1933 334.839 66.94C335.266 66.6733 335.606 66.24 335.859 65.64L337.719 66.38C337.373 67.2733 336.813 67.9667 336.039 68.46C335.266 68.9533 334.366 69.2 333.339 69.2ZM346.895 69V62.82C346.895 61.8733 346.655 61.16 346.175 60.68C345.695 60.2 345.122 59.96 344.455 59.96C343.788 59.96 343.215 60.2 342.735 60.68C342.255 61.16 342.015 61.8733 342.015 62.82H341.355C341.355 61.8733 341.522 61.0533 341.855 60.36C342.202 59.6667 342.668 59.1333 343.255 58.76C343.842 58.3867 344.495 58.2 345.215 58.2C345.935 58.2 346.568 58.3733 347.115 58.72C347.675 59.0533 348.108 59.5333 348.415 60.16C348.735 60.7733 348.895 61.5067 348.895 62.36V69H346.895ZM340.015 69V58.4H342.015V69H340.015ZM355.894 69V58.4H357.894V69H355.894ZM356.894 56.96C356.547 56.96 356.254 56.8467 356.014 56.62C355.774 56.3933 355.654 56.1 355.654 55.74C355.654 55.3667 355.774 55.0667 356.014 54.84C356.254 54.6133 356.547 54.5 356.894 54.5C357.24 54.5 357.534 54.6133 357.774 54.84C358.014 55.0667 358.134 55.3667 358.134 55.74C358.134 56.1 358.014 56.3933 357.774 56.62C357.534 56.8467 357.24 56.96 356.894 56.96ZM360.903 69V58C360.903 56.8267 361.203 55.9533 361.803 55.38C362.403 54.7933 363.243 54.5 364.323 54.5C364.59 54.5 364.83 54.52 365.043 54.56C365.27 54.5867 365.51 54.6333 365.763 54.7V56.5C365.563 56.4333 365.363 56.38 365.163 56.34C364.963 56.3 364.75 56.28 364.523 56.28C363.99 56.28 363.583 56.42 363.303 56.7C363.036 56.98 362.903 57.3667 362.903 57.86V69H360.903ZM359.403 60.14V58.4H365.663V60.14H359.403ZM372.953 72.7C372.66 72.7 372.393 72.68 372.153 72.64C371.913 72.6133 371.68 72.5667 371.453 72.5V70.66C371.693 70.7267 371.933 70.78 372.173 70.82C372.413 70.86 372.646 70.88 372.873 70.88C373.486 70.88 373.973 70.7467 374.333 70.48C374.706 70.2133 375 69.72 375.213 69L378.433 58.4H380.453L377.073 69C376.766 69.96 376.42 70.7067 376.033 71.24C375.66 71.7733 375.22 72.1467 374.713 72.36C374.206 72.5867 373.62 72.7 372.953 72.7ZM373.993 69L370.613 58.4H372.713L376.013 69H373.993ZM386.209 69.2C385.263 69.2 384.423 68.9733 383.689 68.52C382.969 68.0667 382.403 67.4267 381.989 66.6C381.576 65.7733 381.369 64.8067 381.369 63.7C381.369 62.58 381.576 61.6133 381.989 60.8C382.403 59.9733 382.969 59.3333 383.689 58.88C384.423 58.4267 385.263 58.2 386.209 58.2C387.169 58.2 388.009 58.4267 388.729 58.88C389.463 59.3333 390.036 59.9733 390.449 60.8C390.863 61.6133 391.069 62.58 391.069 63.7C391.069 64.8067 390.863 65.7733 390.449 66.6C390.036 67.4267 389.463 68.0667 388.729 68.52C388.009 68.9733 387.169 69.2 386.209 69.2ZM386.209 67.4C387.049 67.4 387.723 67.1067 388.229 66.52C388.736 65.92 388.989 64.98 388.989 63.7C388.989 62.42 388.736 61.4867 388.229 60.9C387.723 60.3 387.049 60 386.209 60C385.383 60 384.716 60.3 384.209 60.9C383.703 61.4867 383.449 62.42 383.449 63.7C383.449 64.98 383.703 65.92 384.209 66.52C384.716 67.1067 385.383 67.4 386.209 67.4ZM396.76 69.2C395.694 69.2 394.82 68.8267 394.14 68.08C393.46 67.3333 393.12 66.32 393.12 65.04V58.4H395.12V64.58C395.12 65.5133 395.354 66.2267 395.82 66.72C396.287 67.2 396.854 67.44 397.52 67.44C398.187 67.44 398.754 67.2 399.22 66.72C399.687 66.2267 399.92 65.5133 399.92 64.58H400.58C400.58 65.5267 400.414 66.3467 400.08 67.04C399.747 67.7333 399.294 68.2667 398.72 68.64C398.147 69.0133 397.494 69.2 396.76 69.2ZM399.92 69V58.4H401.92V69H399.92ZM421.481 69V62.42C421.481 61.6067 421.268 60.9933 420.841 60.58C420.428 60.1667 419.928 59.96 419.341 59.96C418.754 59.96 418.248 60.1667 417.821 60.58C417.408 60.9933 417.201 61.6067 417.201 62.42H416.541C416.541 61.5533 416.694 60.8067 417.001 60.18C417.321 59.54 417.748 59.0533 418.281 58.72C418.828 58.3733 419.434 58.2 420.101 58.2C421.088 58.2 421.894 58.54 422.521 59.22C423.161 59.8867 423.481 60.8 423.481 61.96V69H421.481ZM408.921 69V58.4H410.921V69H408.921ZM415.201 69V62.42C415.201 61.6067 414.988 60.9933 414.561 60.58C414.148 60.1667 413.648 59.96 413.061 59.96C412.474 59.96 411.968 60.1667 411.541 60.58C411.128 60.9933 410.921 61.6067 410.921 62.42H410.261C410.261 61.5533 410.414 60.8067 410.721 60.18C411.041 59.54 411.468 59.0533 412.001 58.72C412.548 58.3733 413.154 58.2 413.821 58.2C414.808 58.2 415.614 58.54 416.241 59.22C416.881 59.8867 417.201 60.8 417.201 61.96V69H415.201ZM430.389 69.2C429.442 69.2 428.602 68.9733 427.869 68.52C427.149 68.0667 426.582 67.4267 426.169 66.6C425.756 65.7733 425.549 64.8067 425.549 63.7C425.549 62.58 425.756 61.6133 426.169 60.8C426.582 59.9733 427.149 59.3333 427.869 58.88C428.602 58.4267 429.442 58.2 430.389 58.2C431.349 58.2 432.189 58.4267 432.909 58.88C433.642 59.3333 434.216 59.9733 434.629 60.8C435.042 61.6133 435.249 62.58 435.249 63.7C435.249 64.8067 435.042 65.7733 434.629 66.6C434.216 67.4267 433.642 68.0667 432.909 68.52C432.189 68.9733 431.349 69.2 430.389 69.2ZM430.389 67.4C431.229 67.4 431.902 67.1067 432.409 66.52C432.916 65.92 433.169 64.98 433.169 63.7C433.169 62.42 432.916 61.4867 432.409 60.9C431.902 60.3 431.229 60 430.389 60C429.562 60 428.896 60.3 428.389 60.9C427.882 61.4867 427.629 62.42 427.629 63.7C427.629 64.98 427.882 65.92 428.389 66.52C428.896 67.1067 429.562 67.4 430.389 67.4ZM439.54 69L436.16 58.4H438.26L441.56 69H439.54ZM440.76 69L443.98 58.4H446L442.62 69H440.76ZM451.796 69.2C450.823 69.2 449.97 68.9733 449.236 68.52C448.503 68.0667 447.93 67.4267 447.516 66.6C447.116 65.7733 446.916 64.8067 446.916 63.7C446.916 62.54 447.123 61.5533 447.536 60.74C447.95 59.9133 448.516 59.2867 449.236 58.86C449.97 58.42 450.81 58.2 451.756 58.2C452.676 58.2 453.483 58.42 454.176 58.86C454.883 59.2867 455.43 59.9133 455.816 60.74C456.216 61.5533 456.416 62.54 456.416 63.7C456.416 63.8067 456.416 63.9067 456.416 64C456.416 64.0933 456.41 64.22 456.396 64.38H448.556V62.8H454.916L454.336 63.7C454.336 62.3667 454.103 61.4067 453.636 60.82C453.17 60.22 452.543 59.92 451.756 59.92C450.93 59.92 450.263 60.22 449.756 60.82C449.25 61.4067 448.996 62.3667 448.996 63.7C448.996 64.94 449.243 65.8533 449.736 66.44C450.243 67.0267 450.93 67.32 451.796 67.32C452.383 67.32 452.883 67.1933 453.296 66.94C453.723 66.6733 454.063 66.24 454.316 65.64L456.176 66.38C455.83 67.2733 455.27 67.9667 454.496 68.46C453.723 68.9533 452.823 69.2 451.796 69.2ZM466.566 69.2C465.526 69.2 464.713 68.9267 464.126 68.38C463.553 67.82 463.266 66.9933 463.266 65.9V56.2L465.266 55.8V65.54C465.266 66.1533 465.413 66.6067 465.706 66.9C466 67.18 466.426 67.32 466.986 67.32C467.253 67.32 467.5 67.3 467.726 67.26C467.966 67.22 468.2 67.1733 468.426 67.12V69C468.146 69.0667 467.86 69.1133 467.566 69.14C467.286 69.18 466.953 69.2 466.566 69.2ZM461.766 60.14V58.4H468.326V60.14H461.766ZM474.51 69.2C473.563 69.2 472.723 68.9733 471.99 68.52C471.27 68.0667 470.703 67.4267 470.29 66.6C469.877 65.7733 469.67 64.8067 469.67 63.7C469.67 62.58 469.877 61.6133 470.29 60.8C470.703 59.9733 471.27 59.3333 471.99 58.88C472.723 58.4267 473.563 58.2 474.51 58.2C475.47 58.2 476.31 58.4267 477.03 58.88C477.763 59.3333 478.337 59.9733 478.75 60.8C479.163 61.6133 479.37 62.58 479.37 63.7C479.37 64.8067 479.163 65.7733 478.75 66.6C478.337 67.4267 477.763 68.0667 477.03 68.52C476.31 68.9733 475.47 69.2 474.51 69.2ZM474.51 67.4C475.35 67.4 476.023 67.1067 476.53 66.52C477.037 65.92 477.29 64.98 477.29 63.7C477.29 62.42 477.037 61.4867 476.53 60.9C476.023 60.3 475.35 60 474.51 60C473.683 60 473.017 60.3 472.51 60.9C472.003 61.4867 471.75 62.42 471.75 63.7C471.75 64.98 472.003 65.92 472.51 66.52C473.017 67.1067 473.683 67.4 474.51 67.4ZM492.216 69C492.136 68.6533 492.069 68.3 492.016 67.94C491.976 67.58 491.956 67.2267 491.956 66.88V62.4C491.956 61.5333 491.729 60.9133 491.276 60.54C490.836 60.1533 490.302 59.96 489.676 59.96C489.102 59.96 488.616 60.12 488.216 60.44C487.829 60.7467 487.549 61.2133 487.376 61.84L485.496 61.22C485.789 60.2467 486.316 59.5 487.076 58.98C487.849 58.46 488.756 58.2 489.796 58.2C491.116 58.2 492.136 58.5533 492.856 59.26C493.589 59.9667 493.956 60.9333 493.956 62.16V66.64C493.956 67.4267 494.056 68.2133 494.256 69H492.216ZM488.336 69.2C487.416 69.2 486.676 68.9333 486.116 68.4C485.569 67.8667 485.296 67.1933 485.296 66.38C485.296 65.58 485.562 64.8933 486.096 64.32C486.642 63.7333 487.482 63.34 488.616 63.14L492.356 62.5V64.04L489.276 64.66C488.569 64.7933 488.062 65 487.756 65.28C487.449 65.5467 487.296 65.8667 487.296 66.24C487.296 66.5467 487.422 66.8333 487.676 67.1C487.929 67.3533 488.336 67.48 488.896 67.48C489.389 67.48 489.869 67.3667 490.336 67.14C490.802 66.9 491.189 66.5667 491.496 66.14C491.802 65.7 491.956 65.18 491.956 64.58H492.616C492.616 65.5267 492.416 66.3467 492.016 67.04C491.629 67.7333 491.109 68.2667 490.456 68.64C489.816 69.0133 489.109 69.2 488.336 69.2ZM504.632 69.2C503.819 69.2 503.092 68.98 502.452 68.54C501.812 68.1 501.312 67.4733 500.952 66.66C500.592 65.8333 500.412 64.8467 500.412 63.7C500.412 62.5533 500.592 61.5733 500.952 60.76C501.312 59.9333 501.812 59.3 502.452 58.86C503.092 58.42 503.819 58.2 504.632 58.2C505.752 58.2 506.652 58.6067 507.332 59.42C508.012 60.22 508.352 61.3533 508.352 62.82V64.58C508.352 66.0467 508.012 67.1867 507.332 68C506.652 68.8 505.752 69.2 504.632 69.2ZM505.192 67.44C505.992 67.44 506.639 67.1467 507.132 66.56C507.639 65.96 507.892 65.0067 507.892 63.7C507.892 62.3933 507.639 61.4467 507.132 60.86C506.639 60.26 505.992 59.96 505.192 59.96C504.392 59.96 503.739 60.26 503.232 60.86C502.739 61.4467 502.492 62.3933 502.492 63.7C502.492 65.0067 502.739 65.96 503.232 66.56C503.739 67.1467 504.392 67.44 505.192 67.44ZM507.792 69V66.54L508.092 63.7L507.792 60.84V54.7H509.792V69H507.792ZM512.398 69V58.4H514.398V69H512.398ZM513.398 56.96C513.051 56.96 512.758 56.8467 512.518 56.62C512.278 56.3933 512.158 56.1 512.158 55.74C512.158 55.3667 512.278 55.0667 512.518 54.84C512.758 54.6133 513.051 54.5 513.398 54.5C513.744 54.5 514.038 54.6133 514.278 54.84C514.518 55.0667 514.638 55.3667 514.638 55.74C514.638 56.1 514.518 56.3933 514.278 56.62C514.038 56.8467 513.744 56.96 513.398 56.96ZM523.807 69V58C523.807 56.8267 524.107 55.9533 524.707 55.38C525.307 54.7933 526.147 54.5 527.227 54.5C527.494 54.5 527.734 54.52 527.947 54.56C528.174 54.5867 528.414 54.6333 528.667 54.7V56.5C528.467 56.4333 528.267 56.38 528.067 56.34C527.867 56.3 527.654 56.28 527.427 56.28C526.894 56.28 526.487 56.42 526.207 56.7C525.94 56.98 525.807 57.3667 525.807 57.86V69H523.807ZM517.407 69V58C517.407 56.8267 517.707 55.9533 518.307 55.38C518.907 54.7933 519.747 54.5 520.827 54.5C521.094 54.5 521.334 54.52 521.547 54.56C521.774 54.5867 522.014 54.6333 522.267 54.7V56.5C522.067 56.4333 521.867 56.38 521.667 56.34C521.467 56.3 521.254 56.28 521.027 56.28C520.494 56.28 520.087 56.42 519.807 56.7C519.54 56.98 519.407 57.3667 519.407 57.86V69H517.407ZM515.907 60.14V58.4H528.567V60.14H515.907ZM534.609 69.2C533.635 69.2 532.782 68.9733 532.049 68.52C531.315 68.0667 530.742 67.4267 530.329 66.6C529.929 65.7733 529.729 64.8067 529.729 63.7C529.729 62.54 529.935 61.5533 530.349 60.74C530.762 59.9133 531.329 59.2867 532.049 58.86C532.782 58.42 533.622 58.2 534.569 58.2C535.489 58.2 536.295 58.42 536.989 58.86C537.695 59.2867 538.242 59.9133 538.629 60.74C539.029 61.5533 539.229 62.54 539.229 63.7C539.229 63.8067 539.229 63.9067 539.229 64C539.229 64.0933 539.222 64.22 539.209 64.38H531.369V62.8H537.729L537.149 63.7C537.149 62.3667 536.915 61.4067 536.449 60.82C535.982 60.22 535.355 59.92 534.569 59.92C533.742 59.92 533.075 60.22 532.569 60.82C532.062 61.4067 531.809 62.3667 531.809 63.7C531.809 64.94 532.055 65.8533 532.549 66.44C533.055 67.0267 533.742 67.32 534.609 67.32C535.195 67.32 535.695 67.1933 536.109 66.94C536.535 66.6733 536.875 66.24 537.129 65.64L538.989 66.38C538.642 67.2733 538.082 67.9667 537.309 68.46C536.535 68.9533 535.635 69.2 534.609 69.2ZM541.284 69V58.4H543.284V69H541.284ZM542.664 63.42C542.664 62.3533 542.824 61.4333 543.144 60.66C543.478 59.8733 543.931 59.2667 544.504 58.84C545.091 58.4133 545.771 58.2 546.544 58.2V60.42H545.904C545.118 60.42 544.484 60.6333 544.004 61.06C543.524 61.4867 543.284 62.1867 543.284 63.16L542.664 63.42ZM552.578 69.2C551.604 69.2 550.751 68.9733 550.018 68.52C549.284 68.0667 548.711 67.4267 548.298 66.6C547.898 65.7733 547.698 64.8067 547.698 63.7C547.698 62.54 547.904 61.5533 548.318 60.74C548.731 59.9133 549.298 59.2867 550.018 58.86C550.751 58.42 551.591 58.2 552.538 58.2C553.458 58.2 554.264 58.42 554.958 58.86C555.664 59.2867 556.211 59.9133 556.598 60.74C556.998 61.5533 557.198 62.54 557.198 63.7C557.198 63.8067 557.198 63.9067 557.198 64C557.198 64.0933 557.191 64.22 557.178 64.38H549.338V62.8H555.698L555.118 63.7C555.118 62.3667 554.884 61.4067 554.418 60.82C553.951 60.22 553.324 59.92 552.538 59.92C551.711 59.92 551.044 60.22 550.538 60.82C550.031 61.4067 549.778 62.3667 549.778 63.7C549.778 64.94 550.024 65.8533 550.518 66.44C551.024 67.0267 551.711 67.32 552.578 67.32C553.164 67.32 553.664 67.1933 554.078 66.94C554.504 66.6733 554.844 66.24 555.098 65.64L556.958 66.38C556.611 67.2733 556.051 67.9667 555.278 68.46C554.504 68.9533 553.604 69.2 552.578 69.2ZM566.133 69V62.82C566.133 61.8733 565.893 61.16 565.413 60.68C564.933 60.2 564.36 59.96 563.693 59.96C563.026 59.96 562.453 60.2 561.973 60.68C561.493 61.16 561.253 61.8733 561.253 62.82H560.593C560.593 61.8733 560.76 61.0533 561.093 60.36C561.44 59.6667 561.906 59.1333 562.493 58.76C563.08 58.3867 563.733 58.2 564.453 58.2C565.173 58.2 565.806 58.3733 566.353 58.72C566.913 59.0533 567.346 59.5333 567.653 60.16C567.973 60.7733 568.133 61.5067 568.133 62.36V69H566.133ZM559.253 69V58.4H561.253V69H559.253ZM574.438 69.2C573.398 69.2 572.584 68.9267 571.998 68.38C571.424 67.82 571.138 66.9933 571.138 65.9V56.2L573.138 55.8V65.54C573.138 66.1533 573.284 66.6067 573.578 66.9C573.871 67.18 574.298 67.32 574.858 67.32C575.124 67.32 575.371 67.3 575.598 67.26C575.838 67.22 576.071 67.1733 576.298 67.12V69C576.018 69.0667 575.731 69.1133 575.438 69.14C575.158 69.18 574.824 69.2 574.438 69.2ZM569.638 60.14V58.4H576.198V60.14H569.638ZM586.716 69.2C585.769 69.2 584.936 68.9733 584.216 68.52C583.496 68.0667 582.936 67.4267 582.536 66.6C582.136 65.7733 581.936 64.8067 581.936 63.7C581.936 62.58 582.136 61.6133 582.536 60.8C582.936 59.9733 583.496 59.3333 584.216 58.88C584.936 58.4267 585.769 58.2 586.716 58.2C587.729 58.2 588.602 58.4667 589.336 59C590.082 59.52 590.602 60.2933 590.896 61.32L589.016 61.94C588.802 61.2467 588.502 60.7533 588.116 60.46C587.729 60.1533 587.229 60 586.616 60C585.842 60 585.216 60.3 584.736 60.9C584.256 61.4867 584.016 62.42 584.016 63.7C584.016 64.98 584.256 65.92 584.736 66.52C585.216 67.1067 585.842 67.4 586.616 67.4C587.229 67.4 587.722 67.2467 588.096 66.94C588.482 66.6333 588.769 66.1333 588.956 65.44L590.896 66.02C590.602 67.0733 590.082 67.8667 589.336 68.4C588.602 68.9333 587.729 69.2 586.716 69.2ZM597.166 69.2C596.22 69.2 595.38 68.9733 594.646 68.52C593.926 68.0667 593.36 67.4267 592.946 66.6C592.533 65.7733 592.326 64.8067 592.326 63.7C592.326 62.58 592.533 61.6133 592.946 60.8C593.36 59.9733 593.926 59.3333 594.646 58.88C595.38 58.4267 596.22 58.2 597.166 58.2C598.126 58.2 598.966 58.4267 599.686 58.88C600.42 59.3333 600.993 59.9733 601.406 60.8C601.82 61.6133 602.026 62.58 602.026 63.7C602.026 64.8067 601.82 65.7733 601.406 66.6C600.993 67.4267 600.42 68.0667 599.686 68.52C598.966 68.9733 598.126 69.2 597.166 69.2ZM597.166 67.4C598.006 67.4 598.68 67.1067 599.186 66.52C599.693 65.92 599.946 64.98 599.946 63.7C599.946 62.42 599.693 61.4867 599.186 60.9C598.68 60.3 598.006 60 597.166 60C596.34 60 595.673 60.3 595.166 60.9C594.66 61.4867 594.406 62.42 594.406 63.7C594.406 64.98 594.66 65.92 595.166 66.52C595.673 67.1067 596.34 67.4 597.166 67.4ZM607.717 69.2C606.651 69.2 605.777 68.8267 605.097 68.08C604.417 67.3333 604.077 66.32 604.077 65.04V58.4H606.077V64.58C606.077 65.5133 606.311 66.2267 606.777 66.72C607.244 67.2 607.811 67.44 608.477 67.44C609.144 67.44 609.711 67.2 610.177 66.72C610.644 66.2267 610.877 65.5133 610.877 64.58H611.537C611.537 65.5267 611.371 66.3467 611.037 67.04C610.704 67.7333 610.251 68.2667 609.677 68.64C609.104 69.0133 608.451 69.2 607.717 69.2ZM610.877 69V58.4H612.877V69H610.877ZM622.364 69V62.82C622.364 61.8733 622.124 61.16 621.644 60.68C621.164 60.2 620.59 59.96 619.924 59.96C619.257 59.96 618.684 60.2 618.204 60.68C617.724 61.16 617.484 61.8733 617.484 62.82H616.824C616.824 61.8733 616.99 61.0533 617.324 60.36C617.67 59.6667 618.137 59.1333 618.724 58.76C619.31 58.3867 619.964 58.2 620.684 58.2C621.404 58.2 622.037 58.3733 622.584 58.72C623.144 59.0533 623.577 59.5333 623.884 60.16C624.204 60.7733 624.364 61.5067 624.364 62.36V69H622.364ZM615.484 69V58.4H617.484V69H615.484ZM630.668 69.2C629.628 69.2 628.815 68.9267 628.228 68.38C627.655 67.82 627.368 66.9933 627.368 65.9V56.2L629.368 55.8V65.54C629.368 66.1533 629.515 66.6067 629.808 66.9C630.101 67.18 630.528 67.32 631.088 67.32C631.355 67.32 631.601 67.3 631.828 67.26C632.068 67.22 632.301 67.1733 632.528 67.12V69C632.248 69.0667 631.961 69.1133 631.668 69.14C631.388 69.18 631.055 69.2 630.668 69.2ZM625.868 60.14V58.4H632.428V60.14H625.868ZM634.312 69V58.4H636.312V69H634.312ZM635.692 63.42C635.692 62.3533 635.852 61.4333 636.172 60.66C636.505 59.8733 636.958 59.2667 637.532 58.84C638.118 58.4133 638.798 58.2 639.572 58.2V60.42H638.932C638.145 60.42 637.512 60.6333 637.032 61.06C636.552 61.4867 636.312 62.1867 636.312 63.16L635.692 63.42ZM642.465 72.7C642.172 72.7 641.905 72.68 641.665 72.64C641.425 72.6133 641.192 72.5667 640.965 72.5V70.66C641.205 70.7267 641.445 70.78 641.685 70.82C641.925 70.86 642.158 70.88 642.385 70.88C642.998 70.88 643.485 70.7467 643.845 70.48C644.218 70.2133 644.512 69.72 644.725 69L647.945 58.4H649.965L646.585 69C646.278 69.96 645.932 70.7067 645.545 71.24C645.172 71.7733 644.732 72.1467 644.225 72.36C643.718 72.5867 643.132 72.7 642.465 72.7ZM643.505 69L640.125 58.4H642.225L645.525 69H643.505ZM650.396 72.2V66.74H652.676L651.796 72.2H650.396ZM662.758 69.2C661.718 69.2 660.904 68.9267 660.318 68.38C659.744 67.82 659.458 66.9933 659.458 65.9V56.2L661.458 55.8V65.54C661.458 66.1533 661.604 66.6067 661.898 66.9C662.191 67.18 662.618 67.32 663.178 67.32C663.444 67.32 663.691 67.3 663.918 67.26C664.158 67.22 664.391 67.1733 664.618 67.12V69C664.338 69.0667 664.051 69.1133 663.758 69.14C663.478 69.18 663.144 69.2 662.758 69.2ZM657.958 60.14V58.4H664.518V60.14H657.958ZM673.282 69V62.82C673.282 61.8733 673.042 61.16 672.562 60.68C672.082 60.2 671.508 59.96 670.842 59.96C670.175 59.96 669.602 60.2 669.122 60.68C668.642 61.16 668.402 61.8733 668.402 62.82H667.742C667.742 61.8733 667.908 61.0533 668.242 60.36C668.588 59.6667 669.055 59.1333 669.642 58.76C670.228 58.3867 670.882 58.2 671.602 58.2C672.322 58.2 672.955 58.3733 673.502 58.72C674.062 59.0533 674.495 59.5333 674.802 60.16C675.122 60.7733 675.282 61.5067 675.282 62.36V69H673.282ZM666.402 69V54.7H668.402V69H666.402ZM684.286 69C684.206 68.6533 684.139 68.3 684.086 67.94C684.046 67.58 684.026 67.2267 684.026 66.88V62.4C684.026 61.5333 683.799 60.9133 683.346 60.54C682.906 60.1533 682.373 59.96 681.746 59.96C681.173 59.96 680.686 60.12 680.286 60.44C679.899 60.7467 679.619 61.2133 679.446 61.84L677.566 61.22C677.859 60.2467 678.386 59.5 679.146 58.98C679.919 58.46 680.826 58.2 681.866 58.2C683.186 58.2 684.206 58.5533 684.926 59.26C685.659 59.9667 686.026 60.9333 686.026 62.16V66.64C686.026 67.4267 686.126 68.2133 686.326 69H684.286ZM680.406 69.2C679.486 69.2 678.746 68.9333 678.186 68.4C677.639 67.8667 677.366 67.1933 677.366 66.38C677.366 65.58 677.633 64.8933 678.166 64.32C678.713 63.7333 679.553 63.34 680.686 63.14L684.426 62.5V64.04L681.346 64.66C680.639 64.7933 680.133 65 679.826 65.28C679.519 65.5467 679.366 65.8667 679.366 66.24C679.366 66.5467 679.493 66.8333 679.746 67.1C679.999 67.3533 680.406 67.48 680.966 67.48C681.459 67.48 681.939 67.3667 682.406 67.14C682.873 66.9 683.259 66.5667 683.566 66.14C683.873 65.7 684.026 65.18 684.026 64.58H684.686C684.686 65.5267 684.486 66.3467 684.086 67.04C683.699 67.7333 683.179 68.2667 682.526 68.64C681.886 69.0133 681.179 69.2 680.406 69.2ZM692.328 69.2C691.288 69.2 690.475 68.9267 689.888 68.38C689.315 67.82 689.028 66.9933 689.028 65.9V56.2L691.028 55.8V65.54C691.028 66.1533 691.175 66.6067 691.468 66.9C691.761 67.18 692.188 67.32 692.748 67.32C693.015 67.32 693.261 67.3 693.488 67.26C693.728 67.22 693.961 67.1733 694.188 67.12V69C693.908 69.0667 693.621 69.1133 693.328 69.14C693.048 69.18 692.715 69.2 692.328 69.2ZM687.528 60.14V58.4H694.088V60.14H687.528ZM704.046 69.2C703.233 69.2 702.506 68.98 701.866 68.54C701.226 68.1 700.726 67.4733 700.366 66.66C700.006 65.8333 699.826 64.8467 699.826 63.7C699.826 62.5533 700.006 61.5733 700.366 60.76C700.726 59.9333 701.226 59.3 701.866 58.86C702.506 58.42 703.233 58.2 704.046 58.2C705.166 58.2 706.066 58.6067 706.746 59.42C707.426 60.22 707.766 61.3533 707.766 62.82V64.58C707.766 66.0467 707.426 67.1867 706.746 68C706.066 68.8 705.166 69.2 704.046 69.2ZM704.606 67.44C705.406 67.44 706.053 67.1467 706.546 66.56C707.053 65.96 707.306 65.0067 707.306 63.7C707.306 62.3933 707.053 61.4467 706.546 60.86C706.053 60.26 705.406 59.96 704.606 59.96C703.806 59.96 703.153 60.26 702.646 60.86C702.153 61.4467 701.906 62.3933 701.906 63.7C701.906 65.0067 702.153 65.96 702.646 66.56C703.153 67.1467 703.806 67.44 704.606 67.44ZM707.206 69V66.54L707.506 63.7L707.206 60.84V54.7H709.206V69H707.206ZM716.112 69.2C715.165 69.2 714.325 68.9733 713.592 68.52C712.872 68.0667 712.305 67.4267 711.892 66.6C711.478 65.7733 711.272 64.8067 711.272 63.7C711.272 62.58 711.478 61.6133 711.892 60.8C712.305 59.9733 712.872 59.3333 713.592 58.88C714.325 58.4267 715.165 58.2 716.112 58.2C717.072 58.2 717.912 58.4267 718.632 58.88C719.365 59.3333 719.938 59.9733 720.352 60.8C720.765 61.6133 720.972 62.58 720.972 63.7C720.972 64.8067 720.765 65.7733 720.352 66.6C719.938 67.4267 719.365 68.0667 718.632 68.52C717.912 68.9733 717.072 69.2 716.112 69.2ZM716.112 67.4C716.952 67.4 717.625 67.1067 718.132 66.52C718.638 65.92 718.892 64.98 718.892 63.7C718.892 62.42 718.638 61.4867 718.132 60.9C717.625 60.3 716.952 60 716.112 60C715.285 60 714.618 60.3 714.112 60.9C713.605 61.4867 713.352 62.42 713.352 63.7C713.352 64.98 713.605 65.92 714.112 66.52C714.618 67.1067 715.285 67.4 716.112 67.4ZM727.363 69.2C726.389 69.2 725.536 68.9733 724.803 68.52C724.069 68.0667 723.496 67.4267 723.083 66.6C722.683 65.7733 722.483 64.8067 722.483 63.7C722.483 62.54 722.689 61.5533 723.103 60.74C723.516 59.9133 724.083 59.2867 724.803 58.86C725.536 58.42 726.376 58.2 727.323 58.2C728.243 58.2 729.049 58.42 729.743 58.86C730.449 59.2867 730.996 59.9133 731.383 60.74C731.783 61.5533 731.983 62.54 731.983 63.7C731.983 63.8067 731.983 63.9067 731.983 64C731.983 64.0933 731.976 64.22 731.963 64.38H724.123V62.8H730.483L729.903 63.7C729.903 62.3667 729.669 61.4067 729.203 60.82C728.736 60.22 728.109 59.92 727.323 59.92C726.496 59.92 725.829 60.22 725.323 60.82C724.816 61.4067 724.563 62.3667 724.563 63.7C724.563 64.94 724.809 65.8533 725.303 66.44C725.809 67.0267 726.496 67.32 727.363 67.32C727.949 67.32 728.449 67.1933 728.863 66.94C729.289 66.6733 729.629 66.24 729.883 65.64L731.743 66.38C731.396 67.2733 730.836 67.9667 730.063 68.46C729.289 68.9533 728.389 69.2 727.363 69.2ZM737.698 69.2C736.498 69.2 735.538 68.96 734.818 68.48C734.098 67.9867 733.592 67.2667 733.298 66.32L735.178 65.72C735.405 66.3867 735.738 66.8667 736.178 67.16C736.618 67.44 737.172 67.58 737.838 67.58C738.438 67.58 738.918 67.4667 739.278 67.24C739.652 67 739.838 66.6667 739.838 66.24C739.838 65.8267 739.692 65.5067 739.398 65.28C739.105 65.04 738.725 64.8467 738.258 64.7C737.792 64.54 737.292 64.3867 736.758 64.24C736.238 64.08 735.745 63.8867 735.278 63.66C734.812 63.4333 734.432 63.1267 734.138 62.74C733.845 62.34 733.698 61.82 733.698 61.18C733.698 60.3533 734.038 59.6533 734.718 59.08C735.398 58.4933 736.372 58.2 737.638 58.2C738.732 58.2 739.612 58.44 740.278 58.92C740.945 59.4 741.425 60.1 741.718 61.02L739.898 61.64C739.658 60.9867 739.338 60.52 738.938 60.24C738.552 59.96 738.065 59.82 737.478 59.82C736.905 59.82 736.458 59.9333 736.138 60.16C735.832 60.3733 735.678 60.6533 735.678 61C735.678 61.36 735.825 61.6467 736.118 61.86C736.412 62.06 736.792 62.2333 737.258 62.38C737.725 62.5133 738.218 62.66 738.738 62.82C739.272 62.98 739.772 63.1867 740.238 63.44C740.705 63.68 741.085 64.0133 741.378 64.44C741.672 64.8667 741.818 65.42 741.818 66.1C741.818 66.9667 741.458 67.7 740.738 68.3C740.032 68.9 739.018 69.2 737.698 69.2ZM755.157 69V62.82C755.157 61.8733 754.917 61.16 754.437 60.68C753.957 60.2 753.383 59.96 752.717 59.96C752.05 59.96 751.477 60.2 750.997 60.68C750.517 61.16 750.277 61.8733 750.277 62.82H749.617C749.617 61.8733 749.783 61.0533 750.117 60.36C750.463 59.6667 750.93 59.1333 751.517 58.76C752.103 58.3867 752.757 58.2 753.477 58.2C754.197 58.2 754.83 58.3733 755.377 58.72C755.937 59.0533 756.37 59.5333 756.677 60.16C756.997 60.7733 757.157 61.5067 757.157 62.36V69H755.157ZM748.277 69V58.4H750.277V69H748.277ZM764.061 69.2C763.114 69.2 762.274 68.9733 761.541 68.52C760.821 68.0667 760.254 67.4267 759.841 66.6C759.428 65.7733 759.221 64.8067 759.221 63.7C759.221 62.58 759.428 61.6133 759.841 60.8C760.254 59.9733 760.821 59.3333 761.541 58.88C762.274 58.4267 763.114 58.2 764.061 58.2C765.021 58.2 765.861 58.4267 766.581 58.88C767.314 59.3333 767.888 59.9733 768.301 60.8C768.714 61.6133 768.921 62.58 768.921 63.7C768.921 64.8067 768.714 65.7733 768.301 66.6C767.888 67.4267 767.314 68.0667 766.581 68.52C765.861 68.9733 765.021 69.2 764.061 69.2ZM764.061 67.4C764.901 67.4 765.574 67.1067 766.081 66.52C766.588 65.92 766.841 64.98 766.841 63.7C766.841 62.42 766.588 61.4867 766.081 60.9C765.574 60.3 764.901 60 764.061 60C763.234 60 762.568 60.3 762.061 60.9C761.554 61.4867 761.301 62.42 761.301 63.7C761.301 64.98 761.554 65.92 762.061 66.52C762.568 67.1067 763.234 67.4 764.061 67.4ZM774.672 69.2C773.632 69.2 772.819 68.9267 772.232 68.38C771.659 67.82 771.372 66.9933 771.372 65.9V56.2L773.372 55.8V65.54C773.372 66.1533 773.519 66.6067 773.812 66.9C774.105 67.18 774.532 67.32 775.092 67.32C775.359 67.32 775.605 67.3 775.832 67.26C776.072 67.22 776.305 67.1733 776.532 67.12V69C776.252 69.0667 775.965 69.1133 775.672 69.14C775.392 69.18 775.059 69.2 774.672 69.2ZM769.872 60.14V58.4H776.432V60.14H769.872ZM789.11 69C789.03 68.6533 788.963 68.3 788.91 67.94C788.87 67.58 788.85 67.2267 788.85 66.88V62.4C788.85 61.5333 788.623 60.9133 788.17 60.54C787.73 60.1533 787.197 59.96 786.57 59.96C785.997 59.96 785.51 60.12 785.11 60.44C784.723 60.7467 784.443 61.2133 784.27 61.84L782.39 61.22C782.683 60.2467 783.21 59.5 783.97 58.98C784.743 58.46 785.65 58.2 786.69 58.2C788.01 58.2 789.03 58.5533 789.75 59.26C790.483 59.9667 790.85 60.9333 790.85 62.16V66.64C790.85 67.4267 790.95 68.2133 791.15 69H789.11ZM785.23 69.2C784.31 69.2 783.57 68.9333 783.01 68.4C782.463 67.8667 782.19 67.1933 782.19 66.38C782.19 65.58 782.457 64.8933 782.99 64.32C783.537 63.7333 784.377 63.34 785.51 63.14L789.25 62.5V64.04L786.17 64.66C785.463 64.7933 784.957 65 784.65 65.28C784.343 65.5467 784.19 65.8667 784.19 66.24C784.19 66.5467 784.317 66.8333 784.57 67.1C784.823 67.3533 785.23 67.48 785.79 67.48C786.283 67.48 786.763 67.3667 787.23 67.14C787.697 66.9 788.083 66.5667 788.39 66.14C788.697 65.7 788.85 65.18 788.85 64.58H789.51C789.51 65.5267 789.31 66.3467 788.91 67.04C788.523 67.7333 788.003 68.2667 787.35 68.64C786.71 69.0133 786.003 69.2 785.23 69.2ZM800.252 69V58C800.252 56.8267 800.552 55.9533 801.152 55.38C801.752 54.7933 802.592 54.5 803.672 54.5C803.939 54.5 804.179 54.52 804.392 54.56C804.619 54.5867 804.859 54.6333 805.112 54.7V56.5C804.912 56.4333 804.712 56.38 804.512 56.34C804.312 56.3 804.099 56.28 803.872 56.28C803.339 56.28 802.932 56.42 802.652 56.7C802.386 56.98 802.252 57.3667 802.252 57.86V69H800.252ZM793.852 69V58C793.852 56.8267 794.152 55.9533 794.752 55.38C795.352 54.7933 796.192 54.5 797.272 54.5C797.539 54.5 797.779 54.52 797.992 54.56C798.219 54.5867 798.459 54.6333 798.712 54.7V56.5C798.512 56.4333 798.312 56.38 798.112 56.34C797.912 56.3 797.699 56.28 797.472 56.28C796.939 56.28 796.532 56.42 796.252 56.7C795.986 56.98 795.852 57.3667 795.852 57.86V69H793.852ZM792.352 60.14V58.4H805.012V60.14H792.352ZM811.054 69.2C810.081 69.2 809.227 68.9733 808.494 68.52C807.761 68.0667 807.187 67.4267 806.774 66.6C806.374 65.7733 806.174 64.8067 806.174 63.7C806.174 62.54 806.381 61.5533 806.794 60.74C807.207 59.9133 807.774 59.2867 808.494 58.86C809.227 58.42 810.067 58.2 811.014 58.2C811.934 58.2 812.741 58.42 813.434 58.86C814.141 59.2867 814.687 59.9133 815.074 60.74C815.474 61.5533 815.674 62.54 815.674 63.7C815.674 63.8067 815.674 63.9067 815.674 64C815.674 64.0933 815.667 64.22 815.654 64.38H807.814V62.8H814.174L813.594 63.7C813.594 62.3667 813.361 61.4067 812.894 60.82C812.427 60.22 811.801 59.92 811.014 59.92C810.187 59.92 809.521 60.22 809.014 60.82C808.507 61.4067 808.254 62.3667 808.254 63.7C808.254 64.94 808.501 65.8533 808.994 66.44C809.501 67.0267 810.187 67.32 811.054 67.32C811.641 67.32 812.141 67.1933 812.554 66.94C812.981 66.6733 813.321 66.24 813.574 65.64L815.434 66.38C815.087 67.2733 814.527 67.9667 813.754 68.46C812.981 68.9533 812.081 69.2 811.054 69.2ZM821.97 69.2C821.023 69.2 820.19 68.9733 819.47 68.52C818.75 68.0667 818.19 67.4267 817.79 66.6C817.39 65.7733 817.19 64.8067 817.19 63.7C817.19 62.58 817.39 61.6133 817.79 60.8C818.19 59.9733 818.75 59.3333 819.47 58.88C820.19 58.4267 821.023 58.2 821.97 58.2C822.983 58.2 823.856 58.4667 824.59 59C825.336 59.52 825.856 60.2933 826.15 61.32L824.27 61.94C824.056 61.2467 823.756 60.7533 823.37 60.46C822.983 60.1533 822.483 60 821.87 60C821.096 60 820.47 60.3 819.99 60.9C819.51 61.4867 819.27 62.42 819.27 63.7C819.27 64.98 819.51 65.92 819.99 66.52C820.47 67.1067 821.096 67.4 821.87 67.4C822.483 67.4 822.976 67.2467 823.35 66.94C823.736 66.6333 824.023 66.1333 824.21 65.44L826.15 66.02C825.856 67.0733 825.336 67.8667 824.59 68.4C823.856 68.9333 822.983 69.2 821.97 69.2ZM831.82 69.2C830.78 69.2 829.967 68.9267 829.38 68.38C828.807 67.82 828.52 66.9933 828.52 65.9V56.2L830.52 55.8V65.54C830.52 66.1533 830.667 66.6067 830.96 66.9C831.254 67.18 831.68 67.32 832.24 67.32C832.507 67.32 832.754 67.3 832.98 67.26C833.22 67.22 833.454 67.1733 833.68 67.12V69C833.4 69.0667 833.114 69.1133 832.82 69.14C832.54 69.18 832.207 69.2 831.82 69.2ZM827.02 60.14V58.4H833.58V60.14H827.02ZM841.059 72.7C840.765 72.7 840.499 72.68 840.259 72.64C840.019 72.6133 839.785 72.5667 839.559 72.5V70.66C839.799 70.7267 840.039 70.78 840.279 70.82C840.519 70.86 840.752 70.88 840.979 70.88C841.592 70.88 842.079 70.7467 842.439 70.48C842.812 70.2133 843.105 69.72 843.319 69L846.539 58.4H848.559L845.179 69C844.872 69.96 844.525 70.7067 844.139 71.24C843.765 71.7733 843.325 72.1467 842.819 72.36C842.312 72.5867 841.725 72.7 841.059 72.7ZM842.099 69L838.719 58.4H840.819L844.119 69H842.099ZM854.315 69.2C853.368 69.2 852.528 68.9733 851.795 68.52C851.075 68.0667 850.508 67.4267 850.095 66.6C849.682 65.7733 849.475 64.8067 849.475 63.7C849.475 62.58 849.682 61.6133 850.095 60.8C850.508 59.9733 851.075 59.3333 851.795 58.88C852.528 58.4267 853.368 58.2 854.315 58.2C855.275 58.2 856.115 58.4267 856.835 58.88C857.568 59.3333 858.142 59.9733 858.555 60.8C858.968 61.6133 859.175 62.58 859.175 63.7C859.175 64.8067 858.968 65.7733 858.555 66.6C858.142 67.4267 857.568 68.0667 856.835 68.52C856.115 68.9733 855.275 69.2 854.315 69.2ZM854.315 67.4C855.155 67.4 855.828 67.1067 856.335 66.52C856.842 65.92 857.095 64.98 857.095 63.7C857.095 62.42 856.842 61.4867 856.335 60.9C855.828 60.3 855.155 60 854.315 60C853.488 60 852.822 60.3 852.315 60.9C851.808 61.4867 851.555 62.42 851.555 63.7C851.555 64.98 851.808 65.92 852.315 66.52C852.822 67.1067 853.488 67.4 854.315 67.4ZM864.866 69.2C863.799 69.2 862.926 68.8267 862.246 68.08C861.566 67.3333 861.226 66.32 861.226 65.04V58.4H863.226V64.58C863.226 65.5133 863.459 66.2267 863.926 66.72C864.392 67.2 864.959 67.44 865.626 67.44C866.292 67.44 866.859 67.2 867.326 66.72C867.792 66.2267 868.026 65.5133 868.026 64.58H868.686C868.686 65.5267 868.519 66.3467 868.186 67.04C867.852 67.7333 867.399 68.2667 866.826 68.64C866.252 69.0133 865.599 69.2 864.866 69.2ZM868.026 69V58.4H870.026V69H868.026ZM872.632 69V58.4H874.632V69H872.632ZM874.012 63.42C874.012 62.3533 874.172 61.4333 874.492 60.66C874.825 59.8733 875.279 59.2667 875.852 58.84C876.439 58.4133 877.119 58.2 877.892 58.2V60.42H877.252C876.465 60.42 875.832 60.6333 875.352 61.06C874.872 61.4867 874.632 62.1867 874.632 63.16L874.012 63.42ZM887.66 69.2C886.846 69.2 886.12 68.98 885.48 68.54C884.84 68.1 884.34 67.4733 883.98 66.66C883.62 65.8333 883.44 64.8467 883.44 63.7C883.44 62.5533 883.62 61.5733 883.98 60.76C884.34 59.9333 884.84 59.3 885.48 58.86C886.12 58.42 886.846 58.2 887.66 58.2C888.78 58.2 889.68 58.6067 890.36 59.42C891.04 60.22 891.38 61.3533 891.38 62.82V64.58C891.38 66.0467 891.04 67.1867 890.36 68C889.68 68.8 888.78 69.2 887.66 69.2ZM888.22 67.44C889.02 67.44 889.666 67.1467 890.16 66.56C890.666 65.96 890.92 65.0067 890.92 63.7C890.92 62.3933 890.666 61.4467 890.16 60.86C889.666 60.26 889.02 59.96 888.22 59.96C887.42 59.96 886.766 60.26 886.26 60.86C885.766 61.4467 885.52 62.3933 885.52 63.7C885.52 65.0067 885.766 65.96 886.26 66.56C886.766 67.1467 887.42 67.44 888.22 67.44ZM890.82 69V66.54L891.12 63.7L890.82 60.84V54.7H892.82V69H890.82ZM901.825 69C901.745 68.6533 901.678 68.3 901.625 67.94C901.585 67.58 901.565 67.2267 901.565 66.88V62.4C901.565 61.5333 901.338 60.9133 900.885 60.54C900.445 60.1533 899.912 59.96 899.285 59.96C898.712 59.96 898.225 60.12 897.825 60.44C897.438 60.7467 897.158 61.2133 896.985 61.84L895.105 61.22C895.398 60.2467 895.925 59.5 896.685 58.98C897.458 58.46 898.365 58.2 899.405 58.2C900.725 58.2 901.745 58.5533 902.465 59.26C903.198 59.9667 903.565 60.9333 903.565 62.16V66.64C903.565 67.4267 903.665 68.2133 903.865 69H901.825ZM897.945 69.2C897.025 69.2 896.285 68.9333 895.725 68.4C895.178 67.8667 894.905 67.1933 894.905 66.38C894.905 65.58 895.172 64.8933 895.705 64.32C896.252 63.7333 897.092 63.34 898.225 63.14L901.965 62.5V64.04L898.885 64.66C898.178 64.7933 897.672 65 897.365 65.28C897.058 65.5467 896.905 65.8667 896.905 66.24C896.905 66.5467 897.032 66.8333 897.285 67.1C897.538 67.3533 897.945 67.48 898.505 67.48C898.998 67.48 899.478 67.3667 899.945 67.14C900.412 66.9 900.798 66.5667 901.105 66.14C901.412 65.7 901.565 65.18 901.565 64.58H902.225C902.225 65.5267 902.025 66.3467 901.625 67.04C901.238 67.7333 900.718 68.2667 900.065 68.64C899.425 69.0133 898.718 69.2 897.945 69.2ZM909.867 69.2C908.827 69.2 908.014 68.9267 907.427 68.38C906.854 67.82 906.567 66.9933 906.567 65.9V56.2L908.567 55.8V65.54C908.567 66.1533 908.714 66.6067 909.007 66.9C909.301 67.18 909.727 67.32 910.287 67.32C910.554 67.32 910.801 67.3 911.027 67.26C911.267 67.22 911.501 67.1733 911.727 67.12V69C911.447 69.0667 911.161 69.1133 910.867 69.14C910.587 69.18 910.254 69.2 909.867 69.2ZM905.067 60.14V58.4H911.627V60.14H905.067ZM919.911 69C919.831 68.6533 919.764 68.3 919.711 67.94C919.671 67.58 919.651 67.2267 919.651 66.88V62.4C919.651 61.5333 919.424 60.9133 918.971 60.54C918.531 60.1533 917.998 59.96 917.371 59.96C916.798 59.96 916.311 60.12 915.911 60.44C915.524 60.7467 915.244 61.2133 915.071 61.84L913.191 61.22C913.484 60.2467 914.011 59.5 914.771 58.98C915.544 58.46 916.451 58.2 917.491 58.2C918.811 58.2 919.831 58.5533 920.551 59.26C921.284 59.9667 921.651 60.9333 921.651 62.16V66.64C921.651 67.4267 921.751 68.2133 921.951 69H919.911ZM916.031 69.2C915.111 69.2 914.371 68.9333 913.811 68.4C913.264 67.8667 912.991 67.1933 912.991 66.38C912.991 65.58 913.258 64.8933 913.791 64.32C914.338 63.7333 915.178 63.34 916.311 63.14L920.051 62.5V64.04L916.971 64.66C916.264 64.7933 915.758 65 915.451 65.28C915.144 65.5467 914.991 65.8667 914.991 66.24C914.991 66.5467 915.118 66.8333 915.371 67.1C915.624 67.3533 916.031 67.48 916.591 67.48C917.084 67.48 917.564 67.3667 918.031 67.14C918.498 66.9 918.884 66.5667 919.191 66.14C919.498 65.7 919.651 65.18 919.651 64.58H920.311C920.311 65.5267 920.111 66.3467 919.711 67.04C919.324 67.7333 918.804 68.2667 918.151 68.64C917.511 69.0133 916.804 69.2 916.031 69.2ZM932.948 69.2C932.001 69.2 931.161 68.9733 930.428 68.52C929.708 68.0667 929.141 67.4267 928.728 66.6C928.314 65.7733 928.108 64.8067 928.108 63.7C928.108 62.58 928.314 61.6133 928.728 60.8C929.141 59.9733 929.708 59.3333 930.428 58.88C931.161 58.4267 932.001 58.2 932.948 58.2C933.908 58.2 934.748 58.4267 935.468 58.88C936.201 59.3333 936.774 59.9733 937.188 60.8C937.601 61.6133 937.808 62.58 937.808 63.7C937.808 64.8067 937.601 65.7733 937.188 66.6C936.774 67.4267 936.201 68.0667 935.468 68.52C934.748 68.9733 933.908 69.2 932.948 69.2ZM932.948 67.4C933.788 67.4 934.461 67.1067 934.968 66.52C935.474 65.92 935.728 64.98 935.728 63.7C935.728 62.42 935.474 61.4867 934.968 60.9C934.461 60.3 933.788 60 932.948 60C932.121 60 931.454 60.3 930.948 60.9C930.441 61.4867 930.188 62.42 930.188 63.7C930.188 64.98 930.441 65.92 930.948 66.52C931.454 67.1067 932.121 67.4 932.948 67.4ZM939.859 69V58.4H941.859V69H939.859ZM941.239 63.42C941.239 62.3533 941.399 61.4333 941.719 60.66C942.052 59.8733 942.505 59.2667 943.079 58.84C943.665 58.4133 944.345 58.2 945.119 58.2V60.42H944.479C943.692 60.42 943.059 60.6333 942.579 61.06C942.099 61.4867 941.859 62.1867 941.859 63.16L941.239 63.42ZM951.206 69V58.4H953.206V69H951.206ZM952.206 56.96C951.86 56.96 951.566 56.8467 951.326 56.62C951.086 56.3933 950.966 56.1 950.966 55.74C950.966 55.3667 951.086 55.0667 951.326 54.84C951.566 54.6133 951.86 54.5 952.206 54.5C952.553 54.5 952.846 54.6133 953.086 54.84C953.326 55.0667 953.446 55.3667 953.446 55.74C953.446 56.1 953.326 56.3933 953.086 56.62C952.846 56.8467 952.553 56.96 952.206 56.96ZM962.696 69V62.82C962.696 61.8733 962.456 61.16 961.976 60.68C961.496 60.2 960.922 59.96 960.256 59.96C959.589 59.96 959.016 60.2 958.536 60.68C958.056 61.16 957.816 61.8733 957.816 62.82H957.156C957.156 61.8733 957.322 61.0533 957.656 60.36C958.002 59.6667 958.469 59.1333 959.056 58.76C959.642 58.3867 960.296 58.2 961.016 58.2C961.736 58.2 962.369 58.3733 962.916 58.72C963.476 59.0533 963.909 59.5333 964.216 60.16C964.536 60.7733 964.696 61.5067 964.696 62.36V69H962.696ZM955.816 69V58.4H957.816V69H955.816ZM971 69.2C969.96 69.2 969.147 68.9267 968.56 68.38C967.987 67.82 967.7 66.9933 967.7 65.9V56.2L969.7 55.8V65.54C969.7 66.1533 969.847 66.6067 970.14 66.9C970.433 67.18 970.86 67.32 971.42 67.32C971.687 67.32 971.933 67.3 972.16 67.26C972.4 67.22 972.633 67.1733 972.86 67.12V69C972.58 69.0667 972.293 69.1133 972 69.14C971.72 69.18 971.387 69.2 971 69.2ZM966.2 60.14V58.4H972.76V60.14H966.2ZM978.984 69.2C978.01 69.2 977.157 68.9733 976.424 68.52C975.69 68.0667 975.117 67.4267 974.704 66.6C974.304 65.7733 974.104 64.8067 974.104 63.7C974.104 62.54 974.31 61.5533 974.724 60.74C975.137 59.9133 975.704 59.2867 976.424 58.86C977.157 58.42 977.997 58.2 978.944 58.2C979.864 58.2 980.67 58.42 981.364 58.86C982.07 59.2867 982.617 59.9133 983.004 60.74C983.404 61.5533 983.604 62.54 983.604 63.7C983.604 63.8067 983.604 63.9067 983.604 64C983.604 64.0933 983.597 64.22 983.584 64.38H975.744V62.8H982.104L981.524 63.7C981.524 62.3667 981.29 61.4067 980.824 60.82C980.357 60.22 979.73 59.92 978.944 59.92C978.117 59.92 977.45 60.22 976.944 60.82C976.437 61.4067 976.184 62.3667 976.184 63.7C976.184 64.94 976.43 65.8533 976.924 66.44C977.43 67.0267 978.117 67.32 978.984 67.32C979.57 67.32 980.07 67.1933 980.484 66.94C980.91 66.6733 981.25 66.24 981.504 65.64L983.364 66.38C983.017 67.2733 982.457 67.9667 981.684 68.46C980.91 68.9533 980.01 69.2 978.984 69.2ZM985.659 69V58.4H987.659V69H985.659ZM987.039 63.42C987.039 62.3533 987.199 61.4333 987.519 60.66C987.853 59.8733 988.306 59.2667 988.879 58.84C989.466 58.4133 990.146 58.2 990.919 58.2V60.42H990.279C989.493 60.42 988.859 60.6333 988.379 61.06C987.899 61.4867 987.659 62.1867 987.659 63.16L987.039 63.42ZM999.493 69V62.82C999.493 61.8733 999.253 61.16 998.773 60.68C998.293 60.2 997.719 59.96 997.053 59.96C996.386 59.96 995.813 60.2 995.333 60.68C994.853 61.16 994.613 61.8733 994.613 62.82H993.952C993.952 61.8733 994.119 61.0533 994.453 60.36C994.799 59.6667 995.266 59.1333 995.853 58.76C996.439 58.3867 997.093 58.2 997.813 58.2C998.533 58.2 999.166 58.3733 999.713 58.72C1000.27 59.0533 1000.71 59.5333 1001.01 60.16C1001.33 60.7733 1001.49 61.5067 1001.49 62.36V69H999.493ZM992.613 69V58.4H994.613V69H992.613ZM1008.44 69.2C1007.46 69.2 1006.61 68.9733 1005.88 68.52C1005.14 68.0667 1004.57 67.4267 1004.16 66.6C1003.76 65.7733 1003.56 64.8067 1003.56 63.7C1003.56 62.54 1003.76 61.5533 1004.18 60.74C1004.59 59.9133 1005.16 59.2867 1005.88 58.86C1006.61 58.42 1007.45 58.2 1008.4 58.2C1009.32 58.2 1010.12 58.42 1010.82 58.86C1011.52 59.2867 1012.07 59.9133 1012.46 60.74C1012.86 61.5533 1013.06 62.54 1013.06 63.7C1013.06 63.8067 1013.06 63.9067 1013.06 64C1013.06 64.0933 1013.05 64.22 1013.04 64.38H1005.2V62.8H1011.56L1010.98 63.7C1010.98 62.3667 1010.74 61.4067 1010.28 60.82C1009.81 60.22 1009.18 59.92 1008.4 59.92C1007.57 59.92 1006.9 60.22 1006.4 60.82C1005.89 61.4067 1005.64 62.3667 1005.64 63.7C1005.64 64.94 1005.88 65.8533 1006.38 66.44C1006.88 67.0267 1007.57 67.32 1008.44 67.32C1009.02 67.32 1009.52 67.1933 1009.94 66.94C1010.36 66.6733 1010.7 66.24 1010.96 65.64L1012.82 66.38C1012.47 67.2733 1011.91 67.9667 1011.14 68.46C1010.36 68.9533 1009.46 69.2 1008.44 69.2ZM1018.81 69.2C1017.77 69.2 1016.96 68.9267 1016.37 68.38C1015.8 67.82 1015.51 66.9933 1015.51 65.9V56.2L1017.51 55.8V65.54C1017.51 66.1533 1017.66 66.6067 1017.95 66.9C1018.25 67.18 1018.67 67.32 1019.23 67.32C1019.5 67.32 1019.75 67.3 1019.97 67.26C1020.21 67.22 1020.45 67.1733 1020.67 67.12V69C1020.39 69.0667 1020.11 69.1133 1019.81 69.14C1019.53 69.18 1019.2 69.2 1018.81 69.2ZM1014.01 60.14V58.4H1020.57V60.14H1014.01ZM1032.01 69.2C1030.89 69.2 1029.99 68.8 1029.31 68C1028.63 67.1867 1028.29 66.0467 1028.29 64.58V62.82C1028.29 61.3533 1028.63 60.22 1029.31 59.42C1029.99 58.6067 1030.89 58.2 1032.01 58.2C1032.84 58.2 1033.56 58.42 1034.19 58.86C1034.83 59.3 1035.33 59.9333 1035.69 60.76C1036.05 61.5733 1036.23 62.5533 1036.23 63.7C1036.23 64.8467 1036.05 65.8333 1035.69 66.66C1035.33 67.4733 1034.83 68.1 1034.19 68.54C1033.56 68.98 1032.84 69.2 1032.01 69.2ZM1026.85 72.5V58.4H1028.85V60.86L1028.55 63.7L1028.85 66.56V72.5H1026.85ZM1031.45 67.44C1032.25 67.44 1032.9 67.1467 1033.39 66.56C1033.9 65.96 1034.15 65.0067 1034.15 63.7C1034.15 62.3933 1033.9 61.4467 1033.39 60.86C1032.9 60.26 1032.25 59.96 1031.45 59.96C1030.65 59.96 1030 60.26 1029.49 60.86C1029 61.4467 1028.75 62.3933 1028.75 63.7C1028.75 65.0067 1029 65.96 1029.49 66.56C1030 67.1467 1030.65 67.44 1031.45 67.44ZM1038.3 69V54.7H1040.3V69H1038.3ZM1049.31 69C1049.23 68.6533 1049.16 68.3 1049.11 67.94C1049.07 67.58 1049.05 67.2267 1049.05 66.88V62.4C1049.05 61.5333 1048.82 60.9133 1048.37 60.54C1047.93 60.1533 1047.39 59.96 1046.77 59.96C1046.19 59.96 1045.71 60.12 1045.31 60.44C1044.92 60.7467 1044.64 61.2133 1044.47 61.84L1042.59 61.22C1042.88 60.2467 1043.41 59.5 1044.17 58.98C1044.94 58.46 1045.85 58.2 1046.89 58.2C1048.21 58.2 1049.23 58.5533 1049.95 59.26C1050.68 59.9667 1051.05 60.9333 1051.05 62.16V66.64C1051.05 67.4267 1051.15 68.2133 1051.35 69H1049.31ZM1045.43 69.2C1044.51 69.2 1043.77 68.9333 1043.21 68.4C1042.66 67.8667 1042.39 67.1933 1042.39 66.38C1042.39 65.58 1042.65 64.8933 1043.19 64.32C1043.73 63.7333 1044.57 63.34 1045.71 63.14L1049.45 62.5V64.04L1046.37 64.66C1045.66 64.7933 1045.15 65 1044.85 65.28C1044.54 65.5467 1044.39 65.8667 1044.39 66.24C1044.39 66.5467 1044.51 66.8333 1044.77 67.1C1045.02 67.3533 1045.43 67.48 1045.99 67.48C1046.48 67.48 1046.96 67.3667 1047.43 67.14C1047.89 66.9 1048.28 66.5667 1048.59 66.14C1048.89 65.7 1049.05 65.18 1049.05 64.58H1049.71C1049.71 65.5267 1049.51 66.3467 1049.11 67.04C1048.72 67.7333 1048.2 68.2667 1047.55 68.64C1046.91 69.0133 1046.2 69.2 1045.43 69.2ZM1060.53 69V62.82C1060.53 61.8733 1060.29 61.16 1059.81 60.68C1059.33 60.2 1058.75 59.96 1058.09 59.96C1057.42 59.96 1056.85 60.2 1056.37 60.68C1055.89 61.16 1055.65 61.8733 1055.65 62.82H1054.99C1054.99 61.8733 1055.15 61.0533 1055.49 60.36C1055.83 59.6667 1056.3 59.1333 1056.89 58.76C1057.47 58.3867 1058.13 58.2 1058.85 58.2C1059.57 58.2 1060.2 58.3733 1060.75 58.72C1061.31 59.0533 1061.74 59.5333 1062.05 60.16C1062.37 60.7733 1062.53 61.5067 1062.53 62.36V69H1060.53ZM1053.65 69V58.4H1055.65V69H1053.65ZM1066.03 69.2C1065.66 69.2 1065.35 69.0733 1065.09 68.82C1064.85 68.5667 1064.73 68.2533 1064.73 67.88C1064.73 67.4933 1064.85 67.1733 1065.09 66.92C1065.35 66.6667 1065.66 66.54 1066.03 66.54C1066.42 66.54 1066.73 66.6667 1066.97 66.92C1067.21 67.1733 1067.33 67.4933 1067.33 67.88C1067.33 68.2533 1067.21 68.5667 1066.97 68.82C1066.73 69.0733 1066.42 69.2 1066.03 69.2Z" fill="white"/>
</g>
<defs>
<filter id="filter0_f_47_60" x="-0.00998497" y="0.729883" width="1083.74" height="88.3703" filterUnits="userSpaceOnUse" color-interpolation-filters="sRGB">
<feFlood flood-opacity="0" result="BackgroundImageFix"/>
<feBlend mode="normal" in="SourceGraphic" in2="BackgroundImageFix" result="shape"/>
<feGaussianBlur stdDeviation="8.2" result="effect1_foregroundBlur_47_60"/>
</filter>
</defs>
</svg>
